G04 #@! TF.GenerationSoftware,KiCad,Pcbnew,no-vcs-found-7571~57~ubuntu17.04.1*
G04 #@! TF.CreationDate,2017-02-08T08:53:27+01:00*
G04 #@! TF.ProjectId,DE0-Nano_DB25,4445302D4E616E6F5F444232352E6B69,rev?*
G04 #@! TF.FileFunction,Drawing*
%FSLAX46Y46*%
G04 Gerber Fmt 4.6, Leading zero omitted, Abs format (unit mm)*
G04 Created by KiCad (PCBNEW no-vcs-found-7571~57~ubuntu17.04.1) date Wed Feb  8 08:53:27 2017*
%MOMM*%
%LPD*%
G01*
G04 APERTURE LIST*
%ADD10C,0.152400*%
%ADD11C,0.304800*%
G04 APERTURE END LIST*
D10*
D11*
X49042997Y-19512245D02*
X48172140Y-19512245D01*
X48607569Y-19512245D02*
X48607569Y-17480245D01*
X48462426Y-17770530D01*
X48317283Y-17964054D01*
X48172140Y-18060816D01*
X50494426Y-19512245D02*
X49623569Y-19512245D01*
X50058997Y-19512245D02*
X50058997Y-17480245D01*
X49913854Y-17770530D01*
X49768711Y-17964054D01*
X49623569Y-18060816D01*
X51437854Y-17480245D02*
X51582997Y-17480245D01*
X51728140Y-17577007D01*
X51800711Y-17673768D01*
X51873283Y-17867292D01*
X51945854Y-18254340D01*
X51945854Y-18738149D01*
X51873283Y-19125197D01*
X51800711Y-19318721D01*
X51728140Y-19415483D01*
X51582997Y-19512245D01*
X51437854Y-19512245D01*
X51292711Y-19415483D01*
X51220140Y-19318721D01*
X51147569Y-19125197D01*
X51074997Y-18738149D01*
X51074997Y-18254340D01*
X51147569Y-17867292D01*
X51220140Y-17673768D01*
X51292711Y-17577007D01*
X51437854Y-17480245D01*
X52598997Y-19318721D02*
X52671569Y-19415483D01*
X52598997Y-19512245D01*
X52526426Y-19415483D01*
X52598997Y-19318721D01*
X52598997Y-19512245D01*
X54050426Y-17480245D02*
X53324711Y-17480245D01*
X53252140Y-18447864D01*
X53324711Y-18351102D01*
X53469854Y-18254340D01*
X53832711Y-18254340D01*
X53977854Y-18351102D01*
X54050426Y-18447864D01*
X54122997Y-18641387D01*
X54122997Y-19125197D01*
X54050426Y-19318721D01*
X53977854Y-19415483D01*
X53832711Y-19512245D01*
X53469854Y-19512245D01*
X53324711Y-19415483D01*
X53252140Y-19318721D01*
X55066426Y-17480245D02*
X55211569Y-17480245D01*
X55356711Y-17577007D01*
X55429283Y-17673768D01*
X55501854Y-17867292D01*
X55574426Y-18254340D01*
X55574426Y-18738149D01*
X55501854Y-19125197D01*
X55429283Y-19318721D01*
X55356711Y-19415483D01*
X55211569Y-19512245D01*
X55066426Y-19512245D01*
X54921283Y-19415483D01*
X54848711Y-19318721D01*
X54776140Y-19125197D01*
X54703569Y-18738149D01*
X54703569Y-18254340D01*
X54776140Y-17867292D01*
X54848711Y-17673768D01*
X54921283Y-17577007D01*
X55066426Y-17480245D01*
X56517854Y-17480245D02*
X56662997Y-17480245D01*
X56808140Y-17577007D01*
X56880711Y-17673768D01*
X56953283Y-17867292D01*
X57025854Y-18254340D01*
X57025854Y-18738149D01*
X56953283Y-19125197D01*
X56880711Y-19318721D01*
X56808140Y-19415483D01*
X56662997Y-19512245D01*
X56517854Y-19512245D01*
X56372711Y-19415483D01*
X56300140Y-19318721D01*
X56227569Y-19125197D01*
X56154997Y-18738149D01*
X56154997Y-18254340D01*
X56227569Y-17867292D01*
X56300140Y-17673768D01*
X56372711Y-17577007D01*
X56517854Y-17480245D01*
X58840140Y-19512245D02*
X58840140Y-18157578D01*
X58840140Y-18351102D02*
X58912711Y-18254340D01*
X59057854Y-18157578D01*
X59275569Y-18157578D01*
X59420711Y-18254340D01*
X59493283Y-18447864D01*
X59493283Y-19512245D01*
X59493283Y-18447864D02*
X59565854Y-18254340D01*
X59710997Y-18157578D01*
X59928711Y-18157578D01*
X60073854Y-18254340D01*
X60146426Y-18447864D01*
X60146426Y-19512245D01*
X60872140Y-19512245D02*
X60872140Y-18157578D01*
X60872140Y-18351102D02*
X60944711Y-18254340D01*
X61089854Y-18157578D01*
X61307569Y-18157578D01*
X61452711Y-18254340D01*
X61525283Y-18447864D01*
X61525283Y-19512245D01*
X61525283Y-18447864D02*
X61597854Y-18254340D01*
X61742997Y-18157578D01*
X61960711Y-18157578D01*
X62105854Y-18254340D01*
X62178426Y-18447864D01*
X62178426Y-19512245D01*
X-38431Y-16967407D02*
X110461569Y-16967407D01*
X-38431Y40632593D02*
X-38431Y-20218607D01*
X110461569Y40632593D02*
X110461569Y-20218607D01*
X110461569Y-16967407D02*
X109335065Y-17553828D01*
X110461569Y-16967407D02*
X109335065Y-16380986D01*
X-38431Y-16967407D02*
X1088073Y-17553828D01*
X-38431Y-16967407D02*
X1088073Y-16380986D01*
X-11828603Y29720593D02*
X-13183270Y29720593D01*
X-11054508Y30083451D02*
X-12505936Y30446308D01*
X-12505936Y29502879D01*
X-12022127Y28704593D02*
X-11925365Y28849736D01*
X-11828603Y28922308D01*
X-11635079Y28994879D01*
X-11538317Y28994879D01*
X-11344793Y28922308D01*
X-11248031Y28849736D01*
X-11151270Y28704593D01*
X-11151270Y28414308D01*
X-11248031Y28269165D01*
X-11344793Y28196593D01*
X-11538317Y28124022D01*
X-11635079Y28124022D01*
X-11828603Y28196593D01*
X-11925365Y28269165D01*
X-12022127Y28414308D01*
X-12022127Y28704593D01*
X-12118889Y28849736D01*
X-12215651Y28922308D01*
X-12409174Y28994879D01*
X-12796222Y28994879D01*
X-12989746Y28922308D01*
X-13086508Y28849736D01*
X-13183270Y28704593D01*
X-13183270Y28414308D01*
X-13086508Y28269165D01*
X-12989746Y28196593D01*
X-12796222Y28124022D01*
X-12409174Y28124022D01*
X-12215651Y28196593D01*
X-12118889Y28269165D01*
X-12022127Y28414308D01*
X-12989746Y27470879D02*
X-13086508Y27398308D01*
X-13183270Y27470879D01*
X-13086508Y27543451D01*
X-12989746Y27470879D01*
X-13183270Y27470879D01*
X-11344793Y26817736D02*
X-11248031Y26745165D01*
X-11151270Y26600022D01*
X-11151270Y26237165D01*
X-11248031Y26092022D01*
X-11344793Y26019451D01*
X-11538317Y25946879D01*
X-11731841Y25946879D01*
X-12022127Y26019451D01*
X-13183270Y26890308D01*
X-13183270Y25946879D01*
X-11151270Y25003451D02*
X-11151270Y24858308D01*
X-11248031Y24713165D01*
X-11344793Y24640593D01*
X-11538317Y24568022D01*
X-11925365Y24495451D01*
X-12409174Y24495451D01*
X-12796222Y24568022D01*
X-12989746Y24640593D01*
X-13086508Y24713165D01*
X-13183270Y24858308D01*
X-13183270Y25003451D01*
X-13086508Y25148593D01*
X-12989746Y25221165D01*
X-12796222Y25293736D01*
X-12409174Y25366308D01*
X-11925365Y25366308D01*
X-11538317Y25293736D01*
X-11344793Y25221165D01*
X-11248031Y25148593D01*
X-11151270Y25003451D01*
X-11151270Y23552022D02*
X-11151270Y23406879D01*
X-11248031Y23261736D01*
X-11344793Y23189165D01*
X-11538317Y23116593D01*
X-11925365Y23044022D01*
X-12409174Y23044022D01*
X-12796222Y23116593D01*
X-12989746Y23189165D01*
X-13086508Y23261736D01*
X-13183270Y23406879D01*
X-13183270Y23552022D01*
X-13086508Y23697165D01*
X-12989746Y23769736D01*
X-12796222Y23842308D01*
X-12409174Y23914879D01*
X-11925365Y23914879D01*
X-11538317Y23842308D01*
X-11344793Y23769736D01*
X-11248031Y23697165D01*
X-11151270Y23552022D01*
X-13183270Y21229736D02*
X-11828603Y21229736D01*
X-12022127Y21229736D02*
X-11925365Y21157165D01*
X-11828603Y21012022D01*
X-11828603Y20794308D01*
X-11925365Y20649165D01*
X-12118889Y20576593D01*
X-13183270Y20576593D01*
X-12118889Y20576593D02*
X-11925365Y20504022D01*
X-11828603Y20358879D01*
X-11828603Y20141165D01*
X-11925365Y19996022D01*
X-12118889Y19923451D01*
X-13183270Y19923451D01*
X-13183270Y19197736D02*
X-11828603Y19197736D01*
X-12022127Y19197736D02*
X-11925365Y19125165D01*
X-11828603Y18980022D01*
X-11828603Y18762308D01*
X-11925365Y18617165D01*
X-12118889Y18544593D01*
X-13183270Y18544593D01*
X-12118889Y18544593D02*
X-11925365Y18472022D01*
X-11828603Y18326879D01*
X-11828603Y18109165D01*
X-11925365Y17964022D01*
X-12118889Y17891451D01*
X-13183270Y17891451D01*
X-10638431Y48232593D02*
X-10638431Y32593D01*
X86361569Y48232593D02*
X-13889631Y48232593D01*
X86361569Y32593D02*
X-13889631Y32593D01*
X-10638431Y32593D02*
X-11224852Y1159097D01*
X-10638431Y32593D02*
X-10052010Y1159097D01*
X-10638431Y48232593D02*
X-11224852Y47106089D01*
X-10638431Y48232593D02*
X-10052010Y47106089D01*
M02*
