G04 #@! TF.GenerationSoftware,KiCad,Pcbnew,no-vcs-found-7571~57~ubuntu17.04.1*
G04 #@! TF.CreationDate,2017-02-08T08:53:27+01:00*
G04 #@! TF.ProjectId,DE0-Nano_DB25,4445302D4E616E6F5F444232352E6B69,rev?*
G04 #@! TF.FileFunction,Legend,Top*
G04 #@! TF.FilePolarity,Positive*
%FSLAX46Y46*%
G04 Gerber Fmt 4.6, Leading zero omitted, Abs format (unit mm)*
G04 Created by KiCad (PCBNEW no-vcs-found-7571~57~ubuntu17.04.1) date Wed Feb  8 08:53:27 2017*
%MOMM*%
%LPD*%
G01*
G04 APERTURE LIST*
%ADD10C,0.152400*%
%ADD11C,0.304800*%
%ADD12C,0.254000*%
%ADD13C,0.002540*%
%ADD14C,0.200000*%
%ADD15C,0.250000*%
%ADD16R,0.750000X2.150000*%
%ADD17R,1.801000X1.826400*%
%ADD18C,1.801000*%
%ADD19C,5.611000*%
%ADD20R,2.150000X1.150000*%
%ADD21R,1.801000X1.801000*%
%ADD22R,1.350000X1.350000*%
%ADD23C,5.865000*%
%ADD24R,1.080000X0.940000*%
%ADD25R,0.940000X1.080000*%
G04 APERTURE END LIST*
D10*
D11*
X44406211Y37251958D02*
X44406211Y39156958D01*
X44859783Y39156958D01*
X45131926Y39066243D01*
X45313354Y38884815D01*
X45404069Y38703386D01*
X45494783Y38340529D01*
X45494783Y38068386D01*
X45404069Y37705529D01*
X45313354Y37524101D01*
X45131926Y37342672D01*
X44859783Y37251958D01*
X44406211Y37251958D01*
X46311211Y38249815D02*
X46946211Y38249815D01*
X47218354Y37251958D02*
X46311211Y37251958D01*
X46311211Y39156958D01*
X47218354Y39156958D01*
X48397640Y39156958D02*
X48579069Y39156958D01*
X48760497Y39066243D01*
X48851211Y38975529D01*
X48941926Y38794101D01*
X49032640Y38431243D01*
X49032640Y37977672D01*
X48941926Y37614815D01*
X48851211Y37433386D01*
X48760497Y37342672D01*
X48579069Y37251958D01*
X48397640Y37251958D01*
X48216211Y37342672D01*
X48125497Y37433386D01*
X48034783Y37614815D01*
X47944069Y37977672D01*
X47944069Y38431243D01*
X48034783Y38794101D01*
X48125497Y38975529D01*
X48216211Y39066243D01*
X48397640Y39156958D01*
X49849069Y37977672D02*
X51300497Y37977672D01*
X52207640Y37251958D02*
X52207640Y39156958D01*
X53296211Y37251958D01*
X53296211Y39156958D01*
X55019783Y37251958D02*
X55019783Y38249815D01*
X54929069Y38431243D01*
X54747640Y38521958D01*
X54384783Y38521958D01*
X54203354Y38431243D01*
X55019783Y37342672D02*
X54838354Y37251958D01*
X54384783Y37251958D01*
X54203354Y37342672D01*
X54112640Y37524101D01*
X54112640Y37705529D01*
X54203354Y37886958D01*
X54384783Y37977672D01*
X54838354Y37977672D01*
X55019783Y38068386D01*
X55926926Y38521958D02*
X55926926Y37251958D01*
X55926926Y38340529D02*
X56017640Y38431243D01*
X56199069Y38521958D01*
X56471211Y38521958D01*
X56652640Y38431243D01*
X56743354Y38249815D01*
X56743354Y37251958D01*
X57922640Y37251958D02*
X57741211Y37342672D01*
X57650497Y37433386D01*
X57559783Y37614815D01*
X57559783Y38159101D01*
X57650497Y38340529D01*
X57741211Y38431243D01*
X57922640Y38521958D01*
X58194783Y38521958D01*
X58376211Y38431243D01*
X58466926Y38340529D01*
X58557640Y38159101D01*
X58557640Y37614815D01*
X58466926Y37433386D01*
X58376211Y37342672D01*
X58194783Y37251958D01*
X57922640Y37251958D01*
X58920497Y37070529D02*
X60371926Y37070529D01*
X60825497Y37251958D02*
X60825497Y39156958D01*
X61279069Y39156958D01*
X61551211Y39066243D01*
X61732640Y38884815D01*
X61823354Y38703386D01*
X61914069Y38340529D01*
X61914069Y38068386D01*
X61823354Y37705529D01*
X61732640Y37524101D01*
X61551211Y37342672D01*
X61279069Y37251958D01*
X60825497Y37251958D01*
X63365497Y38249815D02*
X63637640Y38159101D01*
X63728354Y38068386D01*
X63819069Y37886958D01*
X63819069Y37614815D01*
X63728354Y37433386D01*
X63637640Y37342672D01*
X63456211Y37251958D01*
X62730497Y37251958D01*
X62730497Y39156958D01*
X63365497Y39156958D01*
X63546926Y39066243D01*
X63637640Y38975529D01*
X63728354Y38794101D01*
X63728354Y38612672D01*
X63637640Y38431243D01*
X63546926Y38340529D01*
X63365497Y38249815D01*
X62730497Y38249815D01*
X64544783Y38975529D02*
X64635497Y39066243D01*
X64816926Y39156958D01*
X65270497Y39156958D01*
X65451926Y39066243D01*
X65542640Y38975529D01*
X65633354Y38794101D01*
X65633354Y38612672D01*
X65542640Y38340529D01*
X64454069Y37251958D01*
X65633354Y37251958D01*
X67356926Y39156958D02*
X66449783Y39156958D01*
X66359069Y38249815D01*
X66449783Y38340529D01*
X66631211Y38431243D01*
X67084783Y38431243D01*
X67266211Y38340529D01*
X67356926Y38249815D01*
X67447640Y38068386D01*
X67447640Y37614815D01*
X67356926Y37433386D01*
X67266211Y37342672D01*
X67084783Y37251958D01*
X66631211Y37251958D01*
X66449783Y37342672D01*
X66359069Y37433386D01*
X47898711Y35994658D02*
X48533711Y34089658D01*
X49168711Y35994658D01*
X50529426Y34180372D02*
X50347997Y34089658D01*
X49985140Y34089658D01*
X49803711Y34180372D01*
X49712997Y34361801D01*
X49712997Y35087515D01*
X49803711Y35268943D01*
X49985140Y35359658D01*
X50347997Y35359658D01*
X50529426Y35268943D01*
X50620140Y35087515D01*
X50620140Y34906086D01*
X49712997Y34724658D01*
X51436569Y34089658D02*
X51436569Y35359658D01*
X51436569Y34996801D02*
X51527283Y35178229D01*
X51617997Y35268943D01*
X51799426Y35359658D01*
X51980854Y35359658D01*
X52525140Y34180372D02*
X52706569Y34089658D01*
X53069426Y34089658D01*
X53250854Y34180372D01*
X53341569Y34361801D01*
X53341569Y34452515D01*
X53250854Y34633943D01*
X53069426Y34724658D01*
X52797283Y34724658D01*
X52615854Y34815372D01*
X52525140Y34996801D01*
X52525140Y35087515D01*
X52615854Y35268943D01*
X52797283Y35359658D01*
X53069426Y35359658D01*
X53250854Y35268943D01*
X54157997Y34089658D02*
X54157997Y35359658D01*
X54157997Y35994658D02*
X54067283Y35903943D01*
X54157997Y35813229D01*
X54248711Y35903943D01*
X54157997Y35994658D01*
X54157997Y35813229D01*
X55337283Y34089658D02*
X55155854Y34180372D01*
X55065140Y34271086D01*
X54974426Y34452515D01*
X54974426Y34996801D01*
X55065140Y35178229D01*
X55155854Y35268943D01*
X55337283Y35359658D01*
X55609426Y35359658D01*
X55790854Y35268943D01*
X55881569Y35178229D01*
X55972283Y34996801D01*
X55972283Y34452515D01*
X55881569Y34271086D01*
X55790854Y34180372D01*
X55609426Y34089658D01*
X55337283Y34089658D01*
X56788711Y35359658D02*
X56788711Y34089658D01*
X56788711Y35178229D02*
X56879426Y35268943D01*
X57060854Y35359658D01*
X57332997Y35359658D01*
X57514426Y35268943D01*
X57605140Y35087515D01*
X57605140Y34089658D01*
X60961569Y34089658D02*
X59872997Y34089658D01*
X60417283Y34089658D02*
X60417283Y35994658D01*
X60235854Y35722515D01*
X60054426Y35541086D01*
X59872997Y35450372D01*
X61777997Y34271086D02*
X61868711Y34180372D01*
X61777997Y34089658D01*
X61687283Y34180372D01*
X61777997Y34271086D01*
X61777997Y34089658D01*
X63047997Y35994658D02*
X63229426Y35994658D01*
X63410854Y35903943D01*
X63501569Y35813229D01*
X63592283Y35631801D01*
X63682997Y35268943D01*
X63682997Y34815372D01*
X63592283Y34452515D01*
X63501569Y34271086D01*
X63410854Y34180372D01*
X63229426Y34089658D01*
X63047997Y34089658D01*
X62866569Y34180372D01*
X62775854Y34271086D01*
X62685140Y34452515D01*
X62594426Y34815372D01*
X62594426Y35268943D01*
X62685140Y35631801D01*
X62775854Y35813229D01*
X62866569Y35903943D01*
X63047997Y35994658D01*
X87741569Y37174508D02*
X87668997Y37101936D01*
X87451283Y37029365D01*
X87306140Y37029365D01*
X87088426Y37101936D01*
X86943283Y37247079D01*
X86870711Y37392222D01*
X86798140Y37682508D01*
X86798140Y37900222D01*
X86870711Y38190508D01*
X86943283Y38335651D01*
X87088426Y38480793D01*
X87306140Y38553365D01*
X87451283Y38553365D01*
X87668997Y38480793D01*
X87741569Y38408222D01*
X88612426Y37029365D02*
X88467283Y37101936D01*
X88394711Y37174508D01*
X88322140Y37319651D01*
X88322140Y37755079D01*
X88394711Y37900222D01*
X88467283Y37972793D01*
X88612426Y38045365D01*
X88830140Y38045365D01*
X88975283Y37972793D01*
X89047854Y37900222D01*
X89120426Y37755079D01*
X89120426Y37319651D01*
X89047854Y37174508D01*
X88975283Y37101936D01*
X88830140Y37029365D01*
X88612426Y37029365D01*
X89773569Y38045365D02*
X89773569Y36521365D01*
X89773569Y37972793D02*
X89918711Y38045365D01*
X90208997Y38045365D01*
X90354140Y37972793D01*
X90426711Y37900222D01*
X90499283Y37755079D01*
X90499283Y37319651D01*
X90426711Y37174508D01*
X90354140Y37101936D01*
X90208997Y37029365D01*
X89918711Y37029365D01*
X89773569Y37101936D01*
X91007283Y38045365D02*
X91370140Y37029365D01*
X91732997Y38045365D02*
X91370140Y37029365D01*
X91224997Y36666508D01*
X91152426Y36593936D01*
X91007283Y36521365D01*
X92313569Y37029365D02*
X92313569Y38045365D01*
X92313569Y37755079D02*
X92386140Y37900222D01*
X92458711Y37972793D01*
X92603854Y38045365D01*
X92748997Y38045365D01*
X93256997Y37029365D02*
X93256997Y38045365D01*
X93256997Y38553365D02*
X93184426Y38480793D01*
X93256997Y38408222D01*
X93329569Y38480793D01*
X93256997Y38553365D01*
X93256997Y38408222D01*
X94635854Y38045365D02*
X94635854Y36811651D01*
X94563283Y36666508D01*
X94490711Y36593936D01*
X94345569Y36521365D01*
X94127854Y36521365D01*
X93982711Y36593936D01*
X94635854Y37101936D02*
X94490711Y37029365D01*
X94200426Y37029365D01*
X94055283Y37101936D01*
X93982711Y37174508D01*
X93910140Y37319651D01*
X93910140Y37755079D01*
X93982711Y37900222D01*
X94055283Y37972793D01*
X94200426Y38045365D01*
X94490711Y38045365D01*
X94635854Y37972793D01*
X95361569Y37029365D02*
X95361569Y38553365D01*
X96014711Y37029365D02*
X96014711Y37827651D01*
X95942140Y37972793D01*
X95796997Y38045365D01*
X95579283Y38045365D01*
X95434140Y37972793D01*
X95361569Y37900222D01*
X96522711Y38045365D02*
X97103283Y38045365D01*
X96740426Y38553365D02*
X96740426Y37247079D01*
X96812997Y37101936D01*
X96958140Y37029365D01*
X97103283Y37029365D01*
X98699854Y38408222D02*
X98772426Y38480793D01*
X98917569Y38553365D01*
X99280426Y38553365D01*
X99425569Y38480793D01*
X99498140Y38408222D01*
X99570711Y38263079D01*
X99570711Y38117936D01*
X99498140Y37900222D01*
X98627283Y37029365D01*
X99570711Y37029365D01*
X100514140Y38553365D02*
X100659283Y38553365D01*
X100804426Y38480793D01*
X100876997Y38408222D01*
X100949569Y38263079D01*
X101022140Y37972793D01*
X101022140Y37609936D01*
X100949569Y37319651D01*
X100876997Y37174508D01*
X100804426Y37101936D01*
X100659283Y37029365D01*
X100514140Y37029365D01*
X100368997Y37101936D01*
X100296426Y37174508D01*
X100223854Y37319651D01*
X100151283Y37609936D01*
X100151283Y37972793D01*
X100223854Y38263079D01*
X100296426Y38408222D01*
X100368997Y38480793D01*
X100514140Y38553365D01*
X102473568Y37029365D02*
X101602711Y37029365D01*
X102038140Y37029365D02*
X102038140Y38553365D01*
X101892997Y38335651D01*
X101747854Y38190508D01*
X101602711Y38117936D01*
X103779854Y38553365D02*
X103489569Y38553365D01*
X103344426Y38480793D01*
X103271854Y38408222D01*
X103126711Y38190508D01*
X103054140Y37900222D01*
X103054140Y37319651D01*
X103126711Y37174508D01*
X103199283Y37101936D01*
X103344426Y37029365D01*
X103634711Y37029365D01*
X103779854Y37101936D01*
X103852426Y37174508D01*
X103924997Y37319651D01*
X103924997Y37682508D01*
X103852426Y37827651D01*
X103779854Y37900222D01*
X103634711Y37972793D01*
X103344426Y37972793D01*
X103199283Y37900222D01*
X103126711Y37827651D01*
X103054140Y37682508D01*
X84693569Y34583708D02*
X84620997Y34511136D01*
X84403283Y34438565D01*
X84258140Y34438565D01*
X84040426Y34511136D01*
X83895283Y34656279D01*
X83822711Y34801422D01*
X83750140Y35091708D01*
X83750140Y35309422D01*
X83822711Y35599708D01*
X83895283Y35744851D01*
X84040426Y35889993D01*
X84258140Y35962565D01*
X84403283Y35962565D01*
X84620997Y35889993D01*
X84693569Y35817422D01*
X85346711Y34438565D02*
X85346711Y35962565D01*
X85999854Y34438565D02*
X85999854Y35236851D01*
X85927283Y35381993D01*
X85782140Y35454565D01*
X85564426Y35454565D01*
X85419283Y35381993D01*
X85346711Y35309422D01*
X87378711Y34438565D02*
X87378711Y35236851D01*
X87306140Y35381993D01*
X87160997Y35454565D01*
X86870711Y35454565D01*
X86725569Y35381993D01*
X87378711Y34511136D02*
X87233569Y34438565D01*
X86870711Y34438565D01*
X86725569Y34511136D01*
X86652997Y34656279D01*
X86652997Y34801422D01*
X86725569Y34946565D01*
X86870711Y35019136D01*
X87233569Y35019136D01*
X87378711Y35091708D01*
X88104426Y34438565D02*
X88104426Y35454565D01*
X88104426Y35164279D02*
X88176997Y35309422D01*
X88249569Y35381993D01*
X88394711Y35454565D01*
X88539854Y35454565D01*
X89265569Y34438565D02*
X89120426Y34511136D01*
X89047854Y34656279D01*
X89047854Y35962565D01*
X90426711Y34511136D02*
X90281569Y34438565D01*
X89991283Y34438565D01*
X89846140Y34511136D01*
X89773569Y34656279D01*
X89773569Y35236851D01*
X89846140Y35381993D01*
X89991283Y35454565D01*
X90281569Y35454565D01*
X90426711Y35381993D01*
X90499283Y35236851D01*
X90499283Y35091708D01*
X89773569Y34946565D01*
X91079854Y34511136D02*
X91224997Y34438565D01*
X91515283Y34438565D01*
X91660426Y34511136D01*
X91732997Y34656279D01*
X91732997Y34728851D01*
X91660426Y34873993D01*
X91515283Y34946565D01*
X91297569Y34946565D01*
X91152426Y35019136D01*
X91079854Y35164279D01*
X91079854Y35236851D01*
X91152426Y35381993D01*
X91297569Y35454565D01*
X91515283Y35454565D01*
X91660426Y35381993D01*
X93474711Y34511136D02*
X93692426Y34438565D01*
X94055283Y34438565D01*
X94200426Y34511136D01*
X94272997Y34583708D01*
X94345569Y34728851D01*
X94345569Y34873993D01*
X94272997Y35019136D01*
X94200426Y35091708D01*
X94055283Y35164279D01*
X93764997Y35236851D01*
X93619854Y35309422D01*
X93547283Y35381993D01*
X93474711Y35527136D01*
X93474711Y35672279D01*
X93547283Y35817422D01*
X93619854Y35889993D01*
X93764997Y35962565D01*
X94127854Y35962565D01*
X94345569Y35889993D01*
X94780997Y35454565D02*
X95361569Y35454565D01*
X94998711Y35962565D02*
X94998711Y34656279D01*
X95071283Y34511136D01*
X95216426Y34438565D01*
X95361569Y34438565D01*
X96450140Y34511136D02*
X96304997Y34438565D01*
X96014711Y34438565D01*
X95869569Y34511136D01*
X95796997Y34656279D01*
X95796997Y35236851D01*
X95869569Y35381993D01*
X96014711Y35454565D01*
X96304997Y35454565D01*
X96450140Y35381993D01*
X96522711Y35236851D01*
X96522711Y35091708D01*
X95796997Y34946565D01*
X97175854Y34438565D02*
X97175854Y35454565D01*
X97175854Y35962565D02*
X97103283Y35889993D01*
X97175854Y35817422D01*
X97248426Y35889993D01*
X97175854Y35962565D01*
X97175854Y35817422D01*
X97901569Y35454565D02*
X97901569Y34438565D01*
X97901569Y35309422D02*
X97974140Y35381993D01*
X98119283Y35454565D01*
X98336997Y35454565D01*
X98482140Y35381993D01*
X98554711Y35236851D01*
X98554711Y34438565D01*
X99280426Y34438565D02*
X99280426Y35962565D01*
X99425569Y35019136D02*
X99860997Y34438565D01*
X99860997Y35454565D02*
X99280426Y34873993D01*
X101167283Y35454565D02*
X101167283Y34438565D01*
X100514140Y35454565D02*
X100514140Y34656279D01*
X100586711Y34511136D01*
X100731854Y34438565D01*
X100949569Y34438565D01*
X101094711Y34511136D01*
X101167283Y34583708D01*
X102473569Y34511136D02*
X102328426Y34438565D01*
X102038140Y34438565D01*
X101892997Y34511136D01*
X101820426Y34656279D01*
X101820426Y35236851D01*
X101892997Y35381993D01*
X102038140Y35454565D01*
X102328426Y35454565D01*
X102473569Y35381993D01*
X102546140Y35236851D01*
X102546140Y35091708D01*
X101820426Y34946565D01*
X103199283Y34438565D02*
X103199283Y35962565D01*
X103852426Y34438565D02*
X103852426Y35236851D01*
X103779854Y35381993D01*
X103634711Y35454565D01*
X103416997Y35454565D01*
X103271854Y35381993D01*
X103199283Y35309422D01*
X104795854Y34438565D02*
X104650711Y34511136D01*
X104578140Y34656279D01*
X104578140Y35962565D01*
X105956997Y34511136D02*
X105811854Y34438565D01*
X105521569Y34438565D01*
X105376426Y34511136D01*
X105303854Y34656279D01*
X105303854Y35236851D01*
X105376426Y35381993D01*
X105521569Y35454565D01*
X105811854Y35454565D01*
X105956997Y35381993D01*
X106029569Y35236851D01*
X106029569Y35091708D01*
X105303854Y34946565D01*
X106682711Y34438565D02*
X106682711Y35454565D01*
X106682711Y35164279D02*
X106755283Y35309422D01*
X106827854Y35381993D01*
X106972997Y35454565D01*
X107118140Y35454565D01*
X82879283Y33371765D02*
X83169569Y33371765D01*
X83314711Y33299193D01*
X83459854Y33154051D01*
X83532426Y32863765D01*
X83532426Y32355765D01*
X83459854Y32065479D01*
X83314711Y31920336D01*
X83169569Y31847765D01*
X82879283Y31847765D01*
X82734140Y31920336D01*
X82588997Y32065479D01*
X82516426Y32355765D01*
X82516426Y32863765D01*
X82588997Y33154051D01*
X82734140Y33299193D01*
X82879283Y33371765D01*
X84185569Y32863765D02*
X84185569Y31339765D01*
X84185569Y32791193D02*
X84330711Y32863765D01*
X84620997Y32863765D01*
X84766140Y32791193D01*
X84838711Y32718622D01*
X84911283Y32573479D01*
X84911283Y32138051D01*
X84838711Y31992908D01*
X84766140Y31920336D01*
X84620997Y31847765D01*
X84330711Y31847765D01*
X84185569Y31920336D01*
X86144997Y31920336D02*
X85999854Y31847765D01*
X85709569Y31847765D01*
X85564426Y31920336D01*
X85491854Y32065479D01*
X85491854Y32646051D01*
X85564426Y32791193D01*
X85709569Y32863765D01*
X85999854Y32863765D01*
X86144997Y32791193D01*
X86217569Y32646051D01*
X86217569Y32500908D01*
X85491854Y32355765D01*
X86870711Y32863765D02*
X86870711Y31847765D01*
X86870711Y32718622D02*
X86943283Y32791193D01*
X87088426Y32863765D01*
X87306140Y32863765D01*
X87451283Y32791193D01*
X87523854Y32646051D01*
X87523854Y31847765D01*
X89338140Y31920336D02*
X89555854Y31847765D01*
X89918711Y31847765D01*
X90063854Y31920336D01*
X90136426Y31992908D01*
X90208997Y32138051D01*
X90208997Y32283193D01*
X90136426Y32428336D01*
X90063854Y32500908D01*
X89918711Y32573479D01*
X89628426Y32646051D01*
X89483283Y32718622D01*
X89410711Y32791193D01*
X89338140Y32936336D01*
X89338140Y33081479D01*
X89410711Y33226622D01*
X89483283Y33299193D01*
X89628426Y33371765D01*
X89991283Y33371765D01*
X90208997Y33299193D01*
X91079854Y31847765D02*
X90934711Y31920336D01*
X90862140Y31992908D01*
X90789569Y32138051D01*
X90789569Y32573479D01*
X90862140Y32718622D01*
X90934711Y32791193D01*
X91079854Y32863765D01*
X91297569Y32863765D01*
X91442711Y32791193D01*
X91515283Y32718622D01*
X91587854Y32573479D01*
X91587854Y32138051D01*
X91515283Y31992908D01*
X91442711Y31920336D01*
X91297569Y31847765D01*
X91079854Y31847765D01*
X92894140Y32863765D02*
X92894140Y31847765D01*
X92240997Y32863765D02*
X92240997Y32065479D01*
X92313569Y31920336D01*
X92458711Y31847765D01*
X92676426Y31847765D01*
X92821569Y31920336D01*
X92894140Y31992908D01*
X93619854Y31847765D02*
X93619854Y32863765D01*
X93619854Y32573479D02*
X93692426Y32718622D01*
X93764997Y32791193D01*
X93910140Y32863765D01*
X94055283Y32863765D01*
X95216426Y31920336D02*
X95071283Y31847765D01*
X94780997Y31847765D01*
X94635854Y31920336D01*
X94563283Y31992908D01*
X94490711Y32138051D01*
X94490711Y32573479D01*
X94563283Y32718622D01*
X94635854Y32791193D01*
X94780997Y32863765D01*
X95071283Y32863765D01*
X95216426Y32791193D01*
X96450140Y31920336D02*
X96304997Y31847765D01*
X96014711Y31847765D01*
X95869569Y31920336D01*
X95796997Y32065479D01*
X95796997Y32646051D01*
X95869569Y32791193D01*
X96014711Y32863765D01*
X96304997Y32863765D01*
X96450140Y32791193D01*
X96522711Y32646051D01*
X96522711Y32500908D01*
X95796997Y32355765D01*
X98336997Y31847765D02*
X98336997Y33371765D01*
X98336997Y32646051D02*
X99207854Y32646051D01*
X99207854Y31847765D02*
X99207854Y33371765D01*
X100586711Y31847765D02*
X100586711Y32646051D01*
X100514140Y32791193D01*
X100368997Y32863765D01*
X100078711Y32863765D01*
X99933569Y32791193D01*
X100586711Y31920336D02*
X100441569Y31847765D01*
X100078711Y31847765D01*
X99933569Y31920336D01*
X99860997Y32065479D01*
X99860997Y32210622D01*
X99933569Y32355765D01*
X100078711Y32428336D01*
X100441569Y32428336D01*
X100586711Y32500908D01*
X101312426Y31847765D02*
X101312426Y32863765D01*
X101312426Y32573479D02*
X101384997Y32718622D01*
X101457569Y32791193D01*
X101602711Y32863765D01*
X101747854Y32863765D01*
X102908997Y31847765D02*
X102908997Y33371765D01*
X102908997Y31920336D02*
X102763854Y31847765D01*
X102473569Y31847765D01*
X102328426Y31920336D01*
X102255854Y31992908D01*
X102183283Y32138051D01*
X102183283Y32573479D01*
X102255854Y32718622D01*
X102328426Y32791193D01*
X102473569Y32863765D01*
X102763854Y32863765D01*
X102908997Y32791193D01*
X103489569Y32863765D02*
X103779854Y31847765D01*
X104070140Y32573479D01*
X104360426Y31847765D01*
X104650711Y32863765D01*
X105884426Y31847765D02*
X105884426Y32646051D01*
X105811854Y32791193D01*
X105666711Y32863765D01*
X105376426Y32863765D01*
X105231283Y32791193D01*
X105884426Y31920336D02*
X105739283Y31847765D01*
X105376426Y31847765D01*
X105231283Y31920336D01*
X105158711Y32065479D01*
X105158711Y32210622D01*
X105231283Y32355765D01*
X105376426Y32428336D01*
X105739283Y32428336D01*
X105884426Y32500908D01*
X106610140Y31847765D02*
X106610140Y32863765D01*
X106610140Y32573479D02*
X106682711Y32718622D01*
X106755283Y32791193D01*
X106900426Y32863765D01*
X107045569Y32863765D01*
X108134140Y31920336D02*
X107988997Y31847765D01*
X107698711Y31847765D01*
X107553569Y31920336D01*
X107480997Y32065479D01*
X107480997Y32646051D01*
X107553569Y32791193D01*
X107698711Y32863765D01*
X107988997Y32863765D01*
X108134140Y32791193D01*
X108206711Y32646051D01*
X108206711Y32500908D01*
X107480997Y32355765D01*
X92422426Y30708393D02*
X92277283Y30780965D01*
X92059569Y30780965D01*
X91841854Y30708393D01*
X91696711Y30563251D01*
X91624140Y30418108D01*
X91551569Y30127822D01*
X91551569Y29910108D01*
X91624140Y29619822D01*
X91696711Y29474679D01*
X91841854Y29329536D01*
X92059569Y29256965D01*
X92204711Y29256965D01*
X92422426Y29329536D01*
X92494997Y29402108D01*
X92494997Y29910108D01*
X92204711Y29910108D01*
X93148140Y29256965D02*
X93148140Y30780965D01*
X93728711Y30780965D01*
X93873854Y30708393D01*
X93946426Y30635822D01*
X94018997Y30490679D01*
X94018997Y30272965D01*
X93946426Y30127822D01*
X93873854Y30055251D01*
X93728711Y29982679D01*
X93148140Y29982679D01*
X95397854Y29256965D02*
X94672140Y29256965D01*
X94672140Y30780965D01*
X96849283Y30780965D02*
X97357283Y29256965D01*
X97865283Y30780965D01*
X98228140Y30780965D02*
X99171569Y30780965D01*
X98663569Y30200393D01*
X98881283Y30200393D01*
X99026426Y30127822D01*
X99098997Y30055251D01*
X99171569Y29910108D01*
X99171569Y29547251D01*
X99098997Y29402108D01*
X99026426Y29329536D01*
X98881283Y29256965D01*
X98445854Y29256965D01*
X98300711Y29329536D01*
X98228140Y29402108D01*
D12*
X56000426Y10794593D02*
X55855283Y10867165D01*
X55637569Y10867165D01*
X55419854Y10794593D01*
X55274711Y10649451D01*
X55202140Y10504308D01*
X55129569Y10214022D01*
X55129569Y9996308D01*
X55202140Y9706022D01*
X55274711Y9560879D01*
X55419854Y9415736D01*
X55637569Y9343165D01*
X55782711Y9343165D01*
X56000426Y9415736D01*
X56072997Y9488308D01*
X56072997Y9996308D01*
X55782711Y9996308D01*
X56726140Y9343165D02*
X56726140Y10867165D01*
X57596997Y9343165D01*
X57596997Y10867165D01*
X58322711Y9343165D02*
X58322711Y10867165D01*
X58685569Y10867165D01*
X58903283Y10794593D01*
X59048426Y10649451D01*
X59120997Y10504308D01*
X59193569Y10214022D01*
X59193569Y9996308D01*
X59120997Y9706022D01*
X59048426Y9560879D01*
X58903283Y9415736D01*
X58685569Y9343165D01*
X58322711Y9343165D01*
D11*
X105121283Y30682165D02*
X104395569Y30682165D01*
X104322997Y29956451D01*
X104395569Y30029022D01*
X104540711Y30101593D01*
X104903569Y30101593D01*
X105048711Y30029022D01*
X105121283Y29956451D01*
X105193854Y29811308D01*
X105193854Y29448451D01*
X105121283Y29303308D01*
X105048711Y29230736D01*
X104903569Y29158165D01*
X104540711Y29158165D01*
X104395569Y29230736D01*
X104322997Y29303308D01*
X105629283Y30682165D02*
X106137283Y29158165D01*
X106645283Y30682165D01*
D12*
X103161854Y19252165D02*
X104105283Y19252165D01*
X103597283Y18671593D01*
X103814997Y18671593D01*
X103960140Y18599022D01*
X104032711Y18526451D01*
X104105283Y18381308D01*
X104105283Y18018451D01*
X104032711Y17873308D01*
X103960140Y17800736D01*
X103814997Y17728165D01*
X103379569Y17728165D01*
X103234426Y17800736D01*
X103161854Y17873308D01*
X104758426Y17873308D02*
X104830997Y17800736D01*
X104758426Y17728165D01*
X104685854Y17800736D01*
X104758426Y17873308D01*
X104758426Y17728165D01*
X105338997Y19252165D02*
X106282426Y19252165D01*
X105774426Y18671593D01*
X105992140Y18671593D01*
X106137283Y18599022D01*
X106209854Y18526451D01*
X106282426Y18381308D01*
X106282426Y18018451D01*
X106209854Y17873308D01*
X106137283Y17800736D01*
X105992140Y17728165D01*
X105556711Y17728165D01*
X105411569Y17800736D01*
X105338997Y17873308D01*
X106717854Y19252165D02*
X107225854Y17728165D01*
X107733854Y19252165D01*
D11*
X56861283Y21157165D02*
X56135569Y21157165D01*
X56062997Y20431451D01*
X56135569Y20504022D01*
X56280711Y20576593D01*
X56643569Y20576593D01*
X56788711Y20504022D01*
X56861283Y20431451D01*
X56933854Y20286308D01*
X56933854Y19923451D01*
X56861283Y19778308D01*
X56788711Y19705736D01*
X56643569Y19633165D01*
X56280711Y19633165D01*
X56135569Y19705736D01*
X56062997Y19778308D01*
X57369283Y21157165D02*
X57877283Y19633165D01*
X58385283Y21157165D01*
D12*
X49640426Y10794593D02*
X49495283Y10867165D01*
X49277569Y10867165D01*
X49059854Y10794593D01*
X48914711Y10649451D01*
X48842140Y10504308D01*
X48769569Y10214022D01*
X48769569Y9996308D01*
X48842140Y9706022D01*
X48914711Y9560879D01*
X49059854Y9415736D01*
X49277569Y9343165D01*
X49422711Y9343165D01*
X49640426Y9415736D01*
X49712997Y9488308D01*
X49712997Y9996308D01*
X49422711Y9996308D01*
X50366140Y9343165D02*
X50366140Y10867165D01*
X51236997Y9343165D01*
X51236997Y10867165D01*
X51962711Y9343165D02*
X51962711Y10867165D01*
X52325569Y10867165D01*
X52543283Y10794593D01*
X52688426Y10649451D01*
X52760997Y10504308D01*
X52833569Y10214022D01*
X52833569Y9996308D01*
X52760997Y9706022D01*
X52688426Y9560879D01*
X52543283Y9415736D01*
X52325569Y9343165D01*
X51962711Y9343165D01*
D11*
X50511283Y21157165D02*
X49785569Y21157165D01*
X49712997Y20431451D01*
X49785569Y20504022D01*
X49930711Y20576593D01*
X50293569Y20576593D01*
X50438711Y20504022D01*
X50511283Y20431451D01*
X50583854Y20286308D01*
X50583854Y19923451D01*
X50511283Y19778308D01*
X50438711Y19705736D01*
X50293569Y19633165D01*
X49930711Y19633165D01*
X49785569Y19705736D01*
X49712997Y19778308D01*
X51019283Y21157165D02*
X51527283Y19633165D01*
X52035283Y21157165D01*
D13*
G36*
X73123089Y31000753D02*
X73176429Y31026153D01*
X73295809Y31102353D01*
X73463449Y31214113D01*
X73664109Y31348733D01*
X73864769Y31483353D01*
X74032409Y31595113D01*
X74146709Y31668773D01*
X74194969Y31696713D01*
X74220369Y31686553D01*
X74316889Y31640833D01*
X74456589Y31567173D01*
X74535329Y31526533D01*
X74664869Y31470653D01*
X74725829Y31460493D01*
X74738529Y31478273D01*
X74784249Y31574793D01*
X74857909Y31742433D01*
X74954429Y31960873D01*
X75063649Y32219953D01*
X75180489Y32496813D01*
X75299869Y32781293D01*
X75411629Y33053073D01*
X75510689Y33294373D01*
X75589429Y33492493D01*
X75642769Y33629653D01*
X75663089Y33690613D01*
X75655469Y33700773D01*
X75591969Y33764273D01*
X75480209Y33848093D01*
X75241449Y34041133D01*
X75002689Y34338313D01*
X74857909Y34676133D01*
X74812189Y35049513D01*
X74852829Y35394953D01*
X74987449Y35727693D01*
X75221129Y36027413D01*
X75503069Y36250933D01*
X75830729Y36390633D01*
X76201569Y36436353D01*
X76554629Y36395713D01*
X76894989Y36263633D01*
X77194709Y36035033D01*
X77321709Y35887713D01*
X77496969Y35585453D01*
X77596029Y35260333D01*
X77606189Y35176513D01*
X77590949Y34820913D01*
X77486809Y34478013D01*
X77296309Y34173213D01*
X77034689Y33921753D01*
X77004209Y33898893D01*
X76882289Y33807453D01*
X76801009Y33746493D01*
X76737509Y33693153D01*
X77192169Y32600953D01*
X77263289Y32425693D01*
X77387749Y32128513D01*
X77499509Y31869433D01*
X77585869Y31663693D01*
X77646829Y31529073D01*
X77672229Y31473193D01*
X77677309Y31470653D01*
X77715409Y31463033D01*
X77799229Y31493513D01*
X77951629Y31567173D01*
X78053229Y31617973D01*
X78170069Y31673853D01*
X78220869Y31696713D01*
X78264049Y31671313D01*
X78378349Y31600193D01*
X78540909Y31490973D01*
X78736489Y31358893D01*
X78921909Y31231893D01*
X79092089Y31117593D01*
X79219089Y31038853D01*
X79277509Y31005833D01*
X79287669Y31005833D01*
X79341009Y31036313D01*
X79440069Y31117593D01*
X79589929Y31259833D01*
X79800749Y31465573D01*
X79831229Y31498593D01*
X80003949Y31673853D01*
X80146189Y31823713D01*
X80240169Y31927853D01*
X80273189Y31976113D01*
X80273189Y31976113D01*
X80242709Y32034533D01*
X80163969Y32158993D01*
X80049669Y32334253D01*
X79912509Y32537453D01*
X79549289Y33063233D01*
X79749949Y33558533D01*
X79810909Y33710933D01*
X79887109Y33896353D01*
X79945529Y34028433D01*
X79976009Y34084313D01*
X80029349Y34104633D01*
X80163969Y34137653D01*
X80362089Y34178293D01*
X80595769Y34221473D01*
X80819289Y34262113D01*
X81022489Y34300213D01*
X81169809Y34328153D01*
X81235849Y34343393D01*
X81251089Y34351013D01*
X81263789Y34384033D01*
X81271409Y34452613D01*
X81276489Y34574533D01*
X81279029Y34767573D01*
X81279029Y35049513D01*
X81279029Y35079993D01*
X81276489Y35346693D01*
X81273949Y35560053D01*
X81266329Y35697213D01*
X81256169Y35753093D01*
X81256169Y35753093D01*
X81192669Y35768333D01*
X81050429Y35798813D01*
X80847229Y35839453D01*
X80605929Y35885173D01*
X80590689Y35887713D01*
X80351929Y35933433D01*
X80148729Y35976613D01*
X80009029Y36009633D01*
X79948069Y36027413D01*
X79937909Y36045193D01*
X79887109Y36136633D01*
X79818529Y36286493D01*
X79739789Y36469373D01*
X79661049Y36657333D01*
X79592469Y36827513D01*
X79546749Y36954513D01*
X79534049Y37010393D01*
X79534049Y37012933D01*
X79572149Y37071353D01*
X79653429Y37193273D01*
X79770269Y37368533D01*
X79909969Y37571733D01*
X79922669Y37586973D01*
X80059829Y37790173D01*
X80171589Y37962893D01*
X80245249Y38084813D01*
X80273189Y38140693D01*
X80273189Y38143233D01*
X80227469Y38204193D01*
X80123329Y38318493D01*
X79976009Y38473433D01*
X79798209Y38653773D01*
X79742329Y38709653D01*
X79544209Y38902693D01*
X79407049Y39027153D01*
X79320689Y39095733D01*
X79280049Y39110973D01*
X79280049Y39108433D01*
X79219089Y39072873D01*
X79089549Y38989053D01*
X78916829Y38869673D01*
X78711089Y38729973D01*
X78695849Y38719813D01*
X78492649Y38582653D01*
X78322469Y38468353D01*
X78203089Y38389613D01*
X78149749Y38356593D01*
X78142129Y38356593D01*
X78058309Y38381993D01*
X77913529Y38432793D01*
X77735729Y38501373D01*
X77547769Y38575033D01*
X77377589Y38648693D01*
X77250589Y38707113D01*
X77189629Y38740133D01*
X77187089Y38745213D01*
X77166769Y38816333D01*
X77131209Y38968733D01*
X77088029Y39177013D01*
X77042309Y39425933D01*
X77034689Y39466573D01*
X76988969Y39707873D01*
X76948329Y39908533D01*
X76920389Y40045693D01*
X76907689Y40104113D01*
X76872129Y40111733D01*
X76752749Y40119353D01*
X76572409Y40124433D01*
X76353969Y40126973D01*
X76125369Y40124433D01*
X75899309Y40121893D01*
X75708809Y40114273D01*
X75571649Y40104113D01*
X75513229Y40093953D01*
X75513229Y40088873D01*
X75490369Y40015213D01*
X75457349Y39862813D01*
X75414169Y39651993D01*
X75368449Y39403073D01*
X75358289Y39359893D01*
X75312569Y39118593D01*
X75271929Y38920473D01*
X75243989Y38783313D01*
X75228749Y38729973D01*
X75205889Y38717273D01*
X75106829Y38674093D01*
X74944269Y38608053D01*
X74743609Y38526773D01*
X74278789Y38338813D01*
X73709829Y38729973D01*
X73656489Y38765533D01*
X73450749Y38905233D01*
X73283109Y39016993D01*
X73166269Y39093193D01*
X73118009Y39121133D01*
X73112929Y39118593D01*
X73057049Y39067793D01*
X72942749Y38961113D01*
X72790349Y38811253D01*
X72610009Y38633453D01*
X72477929Y38501373D01*
X72320449Y38341353D01*
X72221389Y38232133D01*
X72165509Y38163553D01*
X72147729Y38122913D01*
X72150269Y38094973D01*
X72188369Y38036553D01*
X72272189Y37909553D01*
X72389029Y37736833D01*
X72528729Y37536173D01*
X72643029Y37368533D01*
X72767489Y37175493D01*
X72846229Y37038333D01*
X72874169Y36972293D01*
X72866549Y36944353D01*
X72828449Y36832593D01*
X72759869Y36664953D01*
X72673509Y36464293D01*
X72475389Y36012173D01*
X72180749Y35956293D01*
X72000409Y35920733D01*
X71751489Y35872473D01*
X71510189Y35826753D01*
X71136809Y35753093D01*
X71121569Y34376413D01*
X71179989Y34353553D01*
X71235869Y34338313D01*
X71375569Y34307833D01*
X71573689Y34267193D01*
X71807369Y34224013D01*
X72005489Y34185913D01*
X72206149Y34147813D01*
X72350929Y34119873D01*
X72414429Y34107173D01*
X72429669Y34084313D01*
X72480469Y33987793D01*
X72551589Y33832853D01*
X72632869Y33647433D01*
X72711609Y33454393D01*
X72782729Y33276593D01*
X72830989Y33141973D01*
X72851309Y33070853D01*
X72823369Y33017513D01*
X72747169Y32900673D01*
X72635409Y32733033D01*
X72500789Y32532373D01*
X72363629Y32334253D01*
X72249329Y32164073D01*
X72168049Y32039613D01*
X72135029Y31983733D01*
X72150269Y31945633D01*
X72231549Y31849113D01*
X72381409Y31694173D01*
X72604929Y31473193D01*
X72643029Y31437633D01*
X72820829Y31264913D01*
X72970689Y31127753D01*
X73074829Y31033773D01*
X73123089Y31000753D01*
X73123089Y31000753D01*
G37*
X73123089Y31000753D02*
X73176429Y31026153D01*
X73295809Y31102353D01*
X73463449Y31214113D01*
X73664109Y31348733D01*
X73864769Y31483353D01*
X74032409Y31595113D01*
X74146709Y31668773D01*
X74194969Y31696713D01*
X74220369Y31686553D01*
X74316889Y31640833D01*
X74456589Y31567173D01*
X74535329Y31526533D01*
X74664869Y31470653D01*
X74725829Y31460493D01*
X74738529Y31478273D01*
X74784249Y31574793D01*
X74857909Y31742433D01*
X74954429Y31960873D01*
X75063649Y32219953D01*
X75180489Y32496813D01*
X75299869Y32781293D01*
X75411629Y33053073D01*
X75510689Y33294373D01*
X75589429Y33492493D01*
X75642769Y33629653D01*
X75663089Y33690613D01*
X75655469Y33700773D01*
X75591969Y33764273D01*
X75480209Y33848093D01*
X75241449Y34041133D01*
X75002689Y34338313D01*
X74857909Y34676133D01*
X74812189Y35049513D01*
X74852829Y35394953D01*
X74987449Y35727693D01*
X75221129Y36027413D01*
X75503069Y36250933D01*
X75830729Y36390633D01*
X76201569Y36436353D01*
X76554629Y36395713D01*
X76894989Y36263633D01*
X77194709Y36035033D01*
X77321709Y35887713D01*
X77496969Y35585453D01*
X77596029Y35260333D01*
X77606189Y35176513D01*
X77590949Y34820913D01*
X77486809Y34478013D01*
X77296309Y34173213D01*
X77034689Y33921753D01*
X77004209Y33898893D01*
X76882289Y33807453D01*
X76801009Y33746493D01*
X76737509Y33693153D01*
X77192169Y32600953D01*
X77263289Y32425693D01*
X77387749Y32128513D01*
X77499509Y31869433D01*
X77585869Y31663693D01*
X77646829Y31529073D01*
X77672229Y31473193D01*
X77677309Y31470653D01*
X77715409Y31463033D01*
X77799229Y31493513D01*
X77951629Y31567173D01*
X78053229Y31617973D01*
X78170069Y31673853D01*
X78220869Y31696713D01*
X78264049Y31671313D01*
X78378349Y31600193D01*
X78540909Y31490973D01*
X78736489Y31358893D01*
X78921909Y31231893D01*
X79092089Y31117593D01*
X79219089Y31038853D01*
X79277509Y31005833D01*
X79287669Y31005833D01*
X79341009Y31036313D01*
X79440069Y31117593D01*
X79589929Y31259833D01*
X79800749Y31465573D01*
X79831229Y31498593D01*
X80003949Y31673853D01*
X80146189Y31823713D01*
X80240169Y31927853D01*
X80273189Y31976113D01*
X80273189Y31976113D01*
X80242709Y32034533D01*
X80163969Y32158993D01*
X80049669Y32334253D01*
X79912509Y32537453D01*
X79549289Y33063233D01*
X79749949Y33558533D01*
X79810909Y33710933D01*
X79887109Y33896353D01*
X79945529Y34028433D01*
X79976009Y34084313D01*
X80029349Y34104633D01*
X80163969Y34137653D01*
X80362089Y34178293D01*
X80595769Y34221473D01*
X80819289Y34262113D01*
X81022489Y34300213D01*
X81169809Y34328153D01*
X81235849Y34343393D01*
X81251089Y34351013D01*
X81263789Y34384033D01*
X81271409Y34452613D01*
X81276489Y34574533D01*
X81279029Y34767573D01*
X81279029Y35049513D01*
X81279029Y35079993D01*
X81276489Y35346693D01*
X81273949Y35560053D01*
X81266329Y35697213D01*
X81256169Y35753093D01*
X81256169Y35753093D01*
X81192669Y35768333D01*
X81050429Y35798813D01*
X80847229Y35839453D01*
X80605929Y35885173D01*
X80590689Y35887713D01*
X80351929Y35933433D01*
X80148729Y35976613D01*
X80009029Y36009633D01*
X79948069Y36027413D01*
X79937909Y36045193D01*
X79887109Y36136633D01*
X79818529Y36286493D01*
X79739789Y36469373D01*
X79661049Y36657333D01*
X79592469Y36827513D01*
X79546749Y36954513D01*
X79534049Y37010393D01*
X79534049Y37012933D01*
X79572149Y37071353D01*
X79653429Y37193273D01*
X79770269Y37368533D01*
X79909969Y37571733D01*
X79922669Y37586973D01*
X80059829Y37790173D01*
X80171589Y37962893D01*
X80245249Y38084813D01*
X80273189Y38140693D01*
X80273189Y38143233D01*
X80227469Y38204193D01*
X80123329Y38318493D01*
X79976009Y38473433D01*
X79798209Y38653773D01*
X79742329Y38709653D01*
X79544209Y38902693D01*
X79407049Y39027153D01*
X79320689Y39095733D01*
X79280049Y39110973D01*
X79280049Y39108433D01*
X79219089Y39072873D01*
X79089549Y38989053D01*
X78916829Y38869673D01*
X78711089Y38729973D01*
X78695849Y38719813D01*
X78492649Y38582653D01*
X78322469Y38468353D01*
X78203089Y38389613D01*
X78149749Y38356593D01*
X78142129Y38356593D01*
X78058309Y38381993D01*
X77913529Y38432793D01*
X77735729Y38501373D01*
X77547769Y38575033D01*
X77377589Y38648693D01*
X77250589Y38707113D01*
X77189629Y38740133D01*
X77187089Y38745213D01*
X77166769Y38816333D01*
X77131209Y38968733D01*
X77088029Y39177013D01*
X77042309Y39425933D01*
X77034689Y39466573D01*
X76988969Y39707873D01*
X76948329Y39908533D01*
X76920389Y40045693D01*
X76907689Y40104113D01*
X76872129Y40111733D01*
X76752749Y40119353D01*
X76572409Y40124433D01*
X76353969Y40126973D01*
X76125369Y40124433D01*
X75899309Y40121893D01*
X75708809Y40114273D01*
X75571649Y40104113D01*
X75513229Y40093953D01*
X75513229Y40088873D01*
X75490369Y40015213D01*
X75457349Y39862813D01*
X75414169Y39651993D01*
X75368449Y39403073D01*
X75358289Y39359893D01*
X75312569Y39118593D01*
X75271929Y38920473D01*
X75243989Y38783313D01*
X75228749Y38729973D01*
X75205889Y38717273D01*
X75106829Y38674093D01*
X74944269Y38608053D01*
X74743609Y38526773D01*
X74278789Y38338813D01*
X73709829Y38729973D01*
X73656489Y38765533D01*
X73450749Y38905233D01*
X73283109Y39016993D01*
X73166269Y39093193D01*
X73118009Y39121133D01*
X73112929Y39118593D01*
X73057049Y39067793D01*
X72942749Y38961113D01*
X72790349Y38811253D01*
X72610009Y38633453D01*
X72477929Y38501373D01*
X72320449Y38341353D01*
X72221389Y38232133D01*
X72165509Y38163553D01*
X72147729Y38122913D01*
X72150269Y38094973D01*
X72188369Y38036553D01*
X72272189Y37909553D01*
X72389029Y37736833D01*
X72528729Y37536173D01*
X72643029Y37368533D01*
X72767489Y37175493D01*
X72846229Y37038333D01*
X72874169Y36972293D01*
X72866549Y36944353D01*
X72828449Y36832593D01*
X72759869Y36664953D01*
X72673509Y36464293D01*
X72475389Y36012173D01*
X72180749Y35956293D01*
X72000409Y35920733D01*
X71751489Y35872473D01*
X71510189Y35826753D01*
X71136809Y35753093D01*
X71121569Y34376413D01*
X71179989Y34353553D01*
X71235869Y34338313D01*
X71375569Y34307833D01*
X71573689Y34267193D01*
X71807369Y34224013D01*
X72005489Y34185913D01*
X72206149Y34147813D01*
X72350929Y34119873D01*
X72414429Y34107173D01*
X72429669Y34084313D01*
X72480469Y33987793D01*
X72551589Y33832853D01*
X72632869Y33647433D01*
X72711609Y33454393D01*
X72782729Y33276593D01*
X72830989Y33141973D01*
X72851309Y33070853D01*
X72823369Y33017513D01*
X72747169Y32900673D01*
X72635409Y32733033D01*
X72500789Y32532373D01*
X72363629Y32334253D01*
X72249329Y32164073D01*
X72168049Y32039613D01*
X72135029Y31983733D01*
X72150269Y31945633D01*
X72231549Y31849113D01*
X72381409Y31694173D01*
X72604929Y31473193D01*
X72643029Y31437633D01*
X72820829Y31264913D01*
X72970689Y31127753D01*
X73074829Y31033773D01*
X73123089Y31000753D01*
D12*
X13844569Y16258593D02*
G75*
G03X13844569Y16258593I-127000J0D01*
G01*
X13844569Y18417593D02*
X13844569Y20957593D01*
X13844569Y20957593D02*
X15114569Y20957593D01*
X15114569Y20957593D02*
X15114569Y22227593D01*
X15114569Y22227593D02*
X13844569Y22227593D01*
X13844569Y22227593D02*
X13844569Y24640593D01*
X13844569Y24640593D02*
X29338569Y24640593D01*
X29338569Y24640593D02*
X29338569Y18417593D01*
X29338569Y18417593D02*
X13844569Y18417593D01*
X31624569Y16258593D02*
G75*
G03X31624569Y16258593I-127000J0D01*
G01*
X31624569Y18417593D02*
X31624569Y20957593D01*
X31624569Y20957593D02*
X32894569Y20957593D01*
X32894569Y20957593D02*
X32894569Y22227593D01*
X32894569Y22227593D02*
X31624569Y22227593D01*
X31624569Y22227593D02*
X31624569Y24640593D01*
X31624569Y24640593D02*
X47118569Y24640593D01*
X47118569Y24640593D02*
X47118569Y18417593D01*
X47118569Y18417593D02*
X31624569Y18417593D01*
X68454569Y16258593D02*
G75*
G03X68454569Y16258593I-127000J0D01*
G01*
X68454569Y18417593D02*
X68454569Y20957593D01*
X68454569Y20957593D02*
X69724569Y20957593D01*
X69724569Y20957593D02*
X69724569Y22227593D01*
X69724569Y22227593D02*
X68454569Y22227593D01*
X68454569Y22227593D02*
X68454569Y24640593D01*
X68454569Y24640593D02*
X83948569Y24640593D01*
X83948569Y24640593D02*
X83948569Y18417593D01*
X83948569Y18417593D02*
X68454569Y18417593D01*
X86234569Y16258593D02*
G75*
G03X86234569Y16258593I-127000J0D01*
G01*
X86234569Y18417593D02*
X86234569Y20957593D01*
X86234569Y20957593D02*
X87504569Y20957593D01*
X87504569Y20957593D02*
X87504569Y22227593D01*
X87504569Y22227593D02*
X86234569Y22227593D01*
X86234569Y22227593D02*
X86234569Y24640593D01*
X86234569Y24640593D02*
X101728569Y24640593D01*
X101728569Y24640593D02*
X101728569Y18417593D01*
X101728569Y18417593D02*
X86234569Y18417593D01*
X49531569Y13972593D02*
X49531569Y19052593D01*
X49531569Y19052593D02*
X52071569Y19052593D01*
X52071569Y19052593D02*
X52071569Y13972593D01*
X52071569Y13972593D02*
X49531569Y13972593D01*
X55881569Y13972593D02*
X55881569Y19052593D01*
X55881569Y19052593D02*
X58421569Y19052593D01*
X58421569Y19052593D02*
X58421569Y13972593D01*
X58421569Y13972593D02*
X55881569Y13972593D01*
X104141569Y22862593D02*
X104141569Y27942593D01*
X104141569Y27942593D02*
X106681569Y27942593D01*
X106681569Y27942593D02*
X106681569Y22862593D01*
X106681569Y22862593D02*
X104141569Y22862593D01*
D11*
X49531569Y16512593D02*
X52071569Y16512593D01*
X52071569Y19052593D02*
X52071569Y11432593D01*
X52071569Y11432593D02*
X49531569Y11432593D01*
X49531569Y11432593D02*
X49531569Y19052593D01*
X49531569Y19052593D02*
X52071569Y19052593D01*
X55881569Y16512593D02*
X58421569Y16512593D01*
X58421569Y19052593D02*
X58421569Y11432593D01*
X58421569Y11432593D02*
X55881569Y11432593D01*
X55881569Y11432593D02*
X55881569Y19052593D01*
X55881569Y19052593D02*
X58421569Y19052593D01*
X104141569Y25402593D02*
X106681569Y25402593D01*
X106681569Y27942593D02*
X106681569Y20322593D01*
X106681569Y20322593D02*
X104141569Y20322593D01*
X104141569Y20322593D02*
X104141569Y27942593D01*
X104141569Y27942593D02*
X106681569Y27942593D01*
D12*
X6986569Y12702593D02*
G75*
G03X6986569Y12702593I-3175000J0D01*
G01*
X109856569Y12702593D02*
G75*
G03X109856569Y12702593I-3175000J0D01*
G01*
D14*
X55651569Y22267593D02*
X55651569Y27267593D01*
X55651569Y27267593D02*
X58651569Y27267593D01*
X58651569Y27267593D02*
X58651569Y22267593D01*
X58651569Y22267593D02*
X55651569Y22267593D01*
X49301569Y22267593D02*
X49301569Y27267593D01*
X49301569Y27267593D02*
X52301569Y27267593D01*
X52301569Y27267593D02*
X52301569Y22267593D01*
X52301569Y22267593D02*
X49301569Y22267593D01*
D11*
X31751569Y46992593D02*
X82551569Y46992593D01*
X82551569Y46992593D02*
X82551569Y41912593D01*
X82551569Y41912593D02*
X31751569Y41912593D01*
X31751569Y46992593D02*
X31751569Y41912593D01*
D15*
X62356569Y25062593D02*
G75*
G03X62356569Y25062593I-125000J0D01*
G01*
D14*
X62931569Y22862593D02*
X61531569Y22862593D01*
D15*
X64896569Y25062593D02*
G75*
G03X64896569Y25062593I-125000J0D01*
G01*
D14*
X65471569Y22862593D02*
X64071569Y22862593D01*
D12*
X636569Y-4442407D02*
X636569Y8257593D01*
X53976569Y-4442407D02*
X53976569Y8257593D01*
X53976569Y8257593D02*
X636569Y8257593D01*
D11*
X6986569Y-10792407D02*
X6986569Y-4442407D01*
X47626569Y-10792407D02*
X47626569Y-4442407D01*
X636569Y-4442407D02*
X53976569Y-4442407D01*
X47626569Y-10792407D02*
X6986569Y-10792407D01*
D12*
X56516569Y-4442407D02*
X56516569Y8257593D01*
X109856569Y-4442407D02*
X109856569Y8257593D01*
X109856569Y8257593D02*
X56516569Y8257593D01*
D11*
X62866569Y-10792407D02*
X62866569Y-4442407D01*
X103506569Y-10792407D02*
X103506569Y-4442407D01*
X56516569Y-4442407D02*
X109856569Y-4442407D01*
X103506569Y-10792407D02*
X62866569Y-10792407D01*
D12*
X75861569Y11032593D02*
X75061569Y11032593D01*
X78361569Y11032593D02*
X77561569Y11032593D01*
X83361569Y11032593D02*
X82561569Y11032593D01*
X85861569Y11032593D02*
X85061569Y11032593D01*
X88361569Y11032593D02*
X87561569Y11032593D01*
X89861569Y11032593D02*
X89061569Y11032593D01*
X91361569Y11032593D02*
X90561569Y11032593D01*
X92861569Y11032593D02*
X92061569Y11032593D01*
X94361569Y11032593D02*
X93561569Y11032593D01*
X95861569Y11032593D02*
X95061569Y11032593D01*
X97361569Y11032593D02*
X96561569Y11032593D01*
X98861569Y11032593D02*
X98061569Y11032593D01*
X100361569Y11032593D02*
X99561569Y11032593D01*
X64371569Y19052593D02*
X65171569Y19052593D01*
X14361569Y11032593D02*
X13561569Y11032593D01*
X11361569Y11032593D02*
X10561569Y11032593D01*
X72861569Y11032593D02*
X72061569Y11032593D01*
X17361569Y11032593D02*
X16561569Y11032593D01*
X20361569Y11032593D02*
X19561569Y11032593D01*
X22861569Y11032593D02*
X22061569Y11032593D01*
X25361569Y11032593D02*
X24561569Y11032593D01*
X27861569Y11032593D02*
X27061569Y11032593D01*
X80861569Y11032593D02*
X80061569Y11032593D01*
X32861569Y11032593D02*
X32061569Y11032593D01*
X34361569Y11032593D02*
X33561569Y11032593D01*
X35861569Y11032593D02*
X35061569Y11032593D01*
X69861569Y11032593D02*
X69061569Y11032593D01*
X66861569Y11032593D02*
X66061569Y11032593D01*
X61831569Y19052593D02*
X62631569Y19052593D01*
X44861569Y11032593D02*
X44061569Y11032593D01*
X43361569Y11032593D02*
X42561569Y11032593D01*
X41861569Y11032593D02*
X41061569Y11032593D01*
X40361569Y11032593D02*
X39561569Y11032593D01*
X38861569Y11032593D02*
X38061569Y11032593D01*
X30361569Y11032593D02*
X29561569Y11032593D01*
X37361569Y11032593D02*
X36561569Y11032593D01*
X67561569Y11032593D02*
X68361569Y11032593D01*
X73561569Y11032593D02*
X74361569Y11032593D01*
X12061569Y11032593D02*
X12861569Y11032593D01*
X18061569Y11032593D02*
X18861569Y11032593D01*
X9861569Y11032593D02*
X9061569Y11032593D01*
X71361569Y11032593D02*
X70561569Y11032593D01*
X15241569Y28977593D02*
X15241569Y28177593D01*
X87631569Y28977593D02*
X87631569Y28177593D01*
X12006092Y20624974D02*
X13034188Y20624974D01*
X13155140Y20685451D01*
X13215616Y20745927D01*
X13276092Y20866879D01*
X13276092Y21108784D01*
X13215616Y21229736D01*
X13155140Y21290213D01*
X13034188Y21350689D01*
X12006092Y21350689D01*
X13276092Y22620689D02*
X13276092Y21894974D01*
X13276092Y22257832D02*
X12006092Y22257832D01*
X12187521Y22136879D01*
X12308473Y22015927D01*
X12368949Y21894974D01*
X15902283Y22228070D02*
X16748949Y22228070D01*
X16204664Y20958070D01*
X17777045Y21804736D02*
X17777045Y20958070D01*
X17474664Y22288546D02*
X17172283Y21381403D01*
X17958473Y21381403D01*
X19167997Y21079022D02*
X19107521Y21018546D01*
X18926092Y20958070D01*
X18805140Y20958070D01*
X18623711Y21018546D01*
X18502759Y21139498D01*
X18442283Y21260451D01*
X18381807Y21502355D01*
X18381807Y21683784D01*
X18442283Y21925689D01*
X18502759Y22046641D01*
X18623711Y22167593D01*
X18805140Y22228070D01*
X18926092Y22228070D01*
X19107521Y22167593D01*
X19167997Y22107117D01*
X20135616Y21623308D02*
X20317045Y21562832D01*
X20377521Y21502355D01*
X20437997Y21381403D01*
X20437997Y21199974D01*
X20377521Y21079022D01*
X20317045Y21018546D01*
X20196092Y20958070D01*
X19712283Y20958070D01*
X19712283Y22228070D01*
X20135616Y22228070D01*
X20256569Y22167593D01*
X20317045Y22107117D01*
X20377521Y21986165D01*
X20377521Y21865213D01*
X20317045Y21744260D01*
X20256569Y21683784D01*
X20135616Y21623308D01*
X19712283Y21623308D01*
X20800854Y22228070D02*
X21526569Y22228070D01*
X21163711Y20958070D02*
X21163711Y22228070D01*
X22554664Y20958070D02*
X21949902Y20958070D01*
X21949902Y22228070D01*
X22796569Y22228070D02*
X23219902Y20958070D01*
X23643235Y22228070D01*
X23945616Y22228070D02*
X24731807Y22228070D01*
X24308473Y21744260D01*
X24489902Y21744260D01*
X24610854Y21683784D01*
X24671330Y21623308D01*
X24731807Y21502355D01*
X24731807Y21199974D01*
X24671330Y21079022D01*
X24610854Y21018546D01*
X24489902Y20958070D01*
X24127045Y20958070D01*
X24006092Y21018546D01*
X23945616Y21079022D01*
X25457521Y21683784D02*
X25336569Y21744260D01*
X25276092Y21804736D01*
X25215616Y21925689D01*
X25215616Y21986165D01*
X25276092Y22107117D01*
X25336569Y22167593D01*
X25457521Y22228070D01*
X25699426Y22228070D01*
X25820378Y22167593D01*
X25880854Y22107117D01*
X25941330Y21986165D01*
X25941330Y21925689D01*
X25880854Y21804736D01*
X25820378Y21744260D01*
X25699426Y21683784D01*
X25457521Y21683784D01*
X25336569Y21623308D01*
X25276092Y21562832D01*
X25215616Y21441879D01*
X25215616Y21199974D01*
X25276092Y21079022D01*
X25336569Y21018546D01*
X25457521Y20958070D01*
X25699426Y20958070D01*
X25820378Y21018546D01*
X25880854Y21079022D01*
X25941330Y21199974D01*
X25941330Y21441879D01*
X25880854Y21562832D01*
X25820378Y21623308D01*
X25699426Y21683784D01*
X27029902Y22228070D02*
X26787997Y22228070D01*
X26667045Y22167593D01*
X26606569Y22107117D01*
X26485616Y21925689D01*
X26425140Y21683784D01*
X26425140Y21199974D01*
X26485616Y21079022D01*
X26546092Y21018546D01*
X26667045Y20958070D01*
X26908949Y20958070D01*
X27029902Y21018546D01*
X27090378Y21079022D01*
X27150854Y21199974D01*
X27150854Y21502355D01*
X27090378Y21623308D01*
X27029902Y21683784D01*
X26908949Y21744260D01*
X26667045Y21744260D01*
X26546092Y21683784D01*
X26485616Y21623308D01*
X26425140Y21502355D01*
X28360378Y20958070D02*
X27634664Y20958070D01*
X27997521Y20958070D02*
X27997521Y22228070D01*
X27876569Y22046641D01*
X27755616Y21925689D01*
X27634664Y21865213D01*
X29786092Y20624974D02*
X30814188Y20624974D01*
X30935140Y20685451D01*
X30995616Y20745927D01*
X31056092Y20866879D01*
X31056092Y21108784D01*
X30995616Y21229736D01*
X30935140Y21290213D01*
X30814188Y21350689D01*
X29786092Y21350689D01*
X29907045Y21894974D02*
X29846569Y21955451D01*
X29786092Y22076403D01*
X29786092Y22378784D01*
X29846569Y22499736D01*
X29907045Y22560213D01*
X30027997Y22620689D01*
X30148949Y22620689D01*
X30330378Y22560213D01*
X31056092Y21834498D01*
X31056092Y22620689D01*
X33602283Y22228070D02*
X34448949Y22228070D01*
X33904664Y20958070D01*
X35477045Y21804736D02*
X35477045Y20958070D01*
X35174664Y22288546D02*
X34872283Y21381403D01*
X35658473Y21381403D01*
X36867997Y21079022D02*
X36807521Y21018546D01*
X36626092Y20958070D01*
X36505140Y20958070D01*
X36323711Y21018546D01*
X36202759Y21139498D01*
X36142283Y21260451D01*
X36081807Y21502355D01*
X36081807Y21683784D01*
X36142283Y21925689D01*
X36202759Y22046641D01*
X36323711Y22167593D01*
X36505140Y22228070D01*
X36626092Y22228070D01*
X36807521Y22167593D01*
X36867997Y22107117D01*
X37835616Y21623308D02*
X38017045Y21562832D01*
X38077521Y21502355D01*
X38137997Y21381403D01*
X38137997Y21199974D01*
X38077521Y21079022D01*
X38017045Y21018546D01*
X37896092Y20958070D01*
X37412283Y20958070D01*
X37412283Y22228070D01*
X37835616Y22228070D01*
X37956569Y22167593D01*
X38017045Y22107117D01*
X38077521Y21986165D01*
X38077521Y21865213D01*
X38017045Y21744260D01*
X37956569Y21683784D01*
X37835616Y21623308D01*
X37412283Y21623308D01*
X38500854Y22228070D02*
X39226569Y22228070D01*
X38863711Y20958070D02*
X38863711Y22228070D01*
X40254664Y20958070D02*
X39649902Y20958070D01*
X39649902Y22228070D01*
X40496569Y22228070D02*
X40919902Y20958070D01*
X41343235Y22228070D01*
X41645616Y22228070D02*
X42431807Y22228070D01*
X42008473Y21744260D01*
X42189902Y21744260D01*
X42310854Y21683784D01*
X42371330Y21623308D01*
X42431807Y21502355D01*
X42431807Y21199974D01*
X42371330Y21079022D01*
X42310854Y21018546D01*
X42189902Y20958070D01*
X41827045Y20958070D01*
X41706092Y21018546D01*
X41645616Y21079022D01*
X43157521Y21683784D02*
X43036569Y21744260D01*
X42976092Y21804736D01*
X42915616Y21925689D01*
X42915616Y21986165D01*
X42976092Y22107117D01*
X43036569Y22167593D01*
X43157521Y22228070D01*
X43399426Y22228070D01*
X43520378Y22167593D01*
X43580854Y22107117D01*
X43641330Y21986165D01*
X43641330Y21925689D01*
X43580854Y21804736D01*
X43520378Y21744260D01*
X43399426Y21683784D01*
X43157521Y21683784D01*
X43036569Y21623308D01*
X42976092Y21562832D01*
X42915616Y21441879D01*
X42915616Y21199974D01*
X42976092Y21079022D01*
X43036569Y21018546D01*
X43157521Y20958070D01*
X43399426Y20958070D01*
X43520378Y21018546D01*
X43580854Y21079022D01*
X43641330Y21199974D01*
X43641330Y21441879D01*
X43580854Y21562832D01*
X43520378Y21623308D01*
X43399426Y21683784D01*
X44729902Y22228070D02*
X44487997Y22228070D01*
X44367045Y22167593D01*
X44306569Y22107117D01*
X44185616Y21925689D01*
X44125140Y21683784D01*
X44125140Y21199974D01*
X44185616Y21079022D01*
X44246092Y21018546D01*
X44367045Y20958070D01*
X44608949Y20958070D01*
X44729902Y21018546D01*
X44790378Y21079022D01*
X44850854Y21199974D01*
X44850854Y21502355D01*
X44790378Y21623308D01*
X44729902Y21683784D01*
X44608949Y21744260D01*
X44367045Y21744260D01*
X44246092Y21683784D01*
X44185616Y21623308D01*
X44125140Y21502355D01*
X46060378Y20958070D02*
X45334664Y20958070D01*
X45697521Y20958070D02*
X45697521Y22228070D01*
X45576569Y22046641D01*
X45455616Y21925689D01*
X45334664Y21865213D01*
X66616092Y20624974D02*
X67644188Y20624974D01*
X67765140Y20685451D01*
X67825616Y20745927D01*
X67886092Y20866879D01*
X67886092Y21108784D01*
X67825616Y21229736D01*
X67765140Y21290213D01*
X67644188Y21350689D01*
X66616092Y21350689D01*
X66616092Y21834498D02*
X66616092Y22620689D01*
X67099902Y22197355D01*
X67099902Y22378784D01*
X67160378Y22499736D01*
X67220854Y22560213D01*
X67341807Y22620689D01*
X67644188Y22620689D01*
X67765140Y22560213D01*
X67825616Y22499736D01*
X67886092Y22378784D01*
X67886092Y22015927D01*
X67825616Y21894974D01*
X67765140Y21834498D01*
X70502283Y22288070D02*
X71348949Y22288070D01*
X70804664Y21018070D01*
X72377045Y21864736D02*
X72377045Y21018070D01*
X72074664Y22348546D02*
X71772283Y21441403D01*
X72558473Y21441403D01*
X73767997Y21139022D02*
X73707521Y21078546D01*
X73526092Y21018070D01*
X73405140Y21018070D01*
X73223711Y21078546D01*
X73102759Y21199498D01*
X73042283Y21320451D01*
X72981807Y21562355D01*
X72981807Y21743784D01*
X73042283Y21985689D01*
X73102759Y22106641D01*
X73223711Y22227593D01*
X73405140Y22288070D01*
X73526092Y22288070D01*
X73707521Y22227593D01*
X73767997Y22167117D01*
X74735616Y21683308D02*
X74917045Y21622832D01*
X74977521Y21562355D01*
X75037997Y21441403D01*
X75037997Y21259974D01*
X74977521Y21139022D01*
X74917045Y21078546D01*
X74796092Y21018070D01*
X74312283Y21018070D01*
X74312283Y22288070D01*
X74735616Y22288070D01*
X74856569Y22227593D01*
X74917045Y22167117D01*
X74977521Y22046165D01*
X74977521Y21925213D01*
X74917045Y21804260D01*
X74856569Y21743784D01*
X74735616Y21683308D01*
X74312283Y21683308D01*
X75400854Y22288070D02*
X76126569Y22288070D01*
X75763711Y21018070D02*
X75763711Y22288070D01*
X77154664Y21018070D02*
X76549902Y21018070D01*
X76549902Y22288070D01*
X77396569Y22288070D02*
X77819902Y21018070D01*
X78243235Y22288070D01*
X78545616Y22288070D02*
X79331807Y22288070D01*
X78908473Y21804260D01*
X79089902Y21804260D01*
X79210854Y21743784D01*
X79271330Y21683308D01*
X79331807Y21562355D01*
X79331807Y21259974D01*
X79271330Y21139022D01*
X79210854Y21078546D01*
X79089902Y21018070D01*
X78727045Y21018070D01*
X78606092Y21078546D01*
X78545616Y21139022D01*
X80057521Y21743784D02*
X79936569Y21804260D01*
X79876092Y21864736D01*
X79815616Y21985689D01*
X79815616Y22046165D01*
X79876092Y22167117D01*
X79936569Y22227593D01*
X80057521Y22288070D01*
X80299426Y22288070D01*
X80420378Y22227593D01*
X80480854Y22167117D01*
X80541330Y22046165D01*
X80541330Y21985689D01*
X80480854Y21864736D01*
X80420378Y21804260D01*
X80299426Y21743784D01*
X80057521Y21743784D01*
X79936569Y21683308D01*
X79876092Y21622832D01*
X79815616Y21501879D01*
X79815616Y21259974D01*
X79876092Y21139022D01*
X79936569Y21078546D01*
X80057521Y21018070D01*
X80299426Y21018070D01*
X80420378Y21078546D01*
X80480854Y21139022D01*
X80541330Y21259974D01*
X80541330Y21501879D01*
X80480854Y21622832D01*
X80420378Y21683308D01*
X80299426Y21743784D01*
X81629902Y22288070D02*
X81387997Y22288070D01*
X81267045Y22227593D01*
X81206569Y22167117D01*
X81085616Y21985689D01*
X81025140Y21743784D01*
X81025140Y21259974D01*
X81085616Y21139022D01*
X81146092Y21078546D01*
X81267045Y21018070D01*
X81508949Y21018070D01*
X81629902Y21078546D01*
X81690378Y21139022D01*
X81750854Y21259974D01*
X81750854Y21562355D01*
X81690378Y21683308D01*
X81629902Y21743784D01*
X81508949Y21804260D01*
X81267045Y21804260D01*
X81146092Y21743784D01*
X81085616Y21683308D01*
X81025140Y21562355D01*
X82960378Y21018070D02*
X82234664Y21018070D01*
X82597521Y21018070D02*
X82597521Y22288070D01*
X82476569Y22106641D01*
X82355616Y21985689D01*
X82234664Y21925213D01*
X84396092Y20624974D02*
X85424188Y20624974D01*
X85545140Y20685451D01*
X85605616Y20745927D01*
X85666092Y20866879D01*
X85666092Y21108784D01*
X85605616Y21229736D01*
X85545140Y21290213D01*
X85424188Y21350689D01*
X84396092Y21350689D01*
X84819426Y22499736D02*
X85666092Y22499736D01*
X84335616Y22197355D02*
X85242759Y21894974D01*
X85242759Y22681165D01*
X88502283Y22288070D02*
X89348949Y22288070D01*
X88804664Y21018070D01*
X90377045Y21864736D02*
X90377045Y21018070D01*
X90074664Y22348546D02*
X89772283Y21441403D01*
X90558473Y21441403D01*
X91767997Y21139022D02*
X91707521Y21078546D01*
X91526092Y21018070D01*
X91405140Y21018070D01*
X91223711Y21078546D01*
X91102759Y21199498D01*
X91042283Y21320451D01*
X90981807Y21562355D01*
X90981807Y21743784D01*
X91042283Y21985689D01*
X91102759Y22106641D01*
X91223711Y22227593D01*
X91405140Y22288070D01*
X91526092Y22288070D01*
X91707521Y22227593D01*
X91767997Y22167117D01*
X92735616Y21683308D02*
X92917045Y21622832D01*
X92977521Y21562355D01*
X93037997Y21441403D01*
X93037997Y21259974D01*
X92977521Y21139022D01*
X92917045Y21078546D01*
X92796092Y21018070D01*
X92312283Y21018070D01*
X92312283Y22288070D01*
X92735616Y22288070D01*
X92856569Y22227593D01*
X92917045Y22167117D01*
X92977521Y22046165D01*
X92977521Y21925213D01*
X92917045Y21804260D01*
X92856569Y21743784D01*
X92735616Y21683308D01*
X92312283Y21683308D01*
X93400854Y22288070D02*
X94126569Y22288070D01*
X93763711Y21018070D02*
X93763711Y22288070D01*
X95154664Y21018070D02*
X94549902Y21018070D01*
X94549902Y22288070D01*
X95396569Y22288070D02*
X95819902Y21018070D01*
X96243235Y22288070D01*
X96545616Y22288070D02*
X97331807Y22288070D01*
X96908473Y21804260D01*
X97089902Y21804260D01*
X97210854Y21743784D01*
X97271330Y21683308D01*
X97331807Y21562355D01*
X97331807Y21259974D01*
X97271330Y21139022D01*
X97210854Y21078546D01*
X97089902Y21018070D01*
X96727045Y21018070D01*
X96606092Y21078546D01*
X96545616Y21139022D01*
X98057521Y21743784D02*
X97936569Y21804260D01*
X97876092Y21864736D01*
X97815616Y21985689D01*
X97815616Y22046165D01*
X97876092Y22167117D01*
X97936569Y22227593D01*
X98057521Y22288070D01*
X98299426Y22288070D01*
X98420378Y22227593D01*
X98480854Y22167117D01*
X98541330Y22046165D01*
X98541330Y21985689D01*
X98480854Y21864736D01*
X98420378Y21804260D01*
X98299426Y21743784D01*
X98057521Y21743784D01*
X97936569Y21683308D01*
X97876092Y21622832D01*
X97815616Y21501879D01*
X97815616Y21259974D01*
X97876092Y21139022D01*
X97936569Y21078546D01*
X98057521Y21018070D01*
X98299426Y21018070D01*
X98420378Y21078546D01*
X98480854Y21139022D01*
X98541330Y21259974D01*
X98541330Y21501879D01*
X98480854Y21622832D01*
X98420378Y21683308D01*
X98299426Y21743784D01*
X99629902Y22288070D02*
X99387997Y22288070D01*
X99267045Y22227593D01*
X99206569Y22167117D01*
X99085616Y21985689D01*
X99025140Y21743784D01*
X99025140Y21259974D01*
X99085616Y21139022D01*
X99146092Y21078546D01*
X99267045Y21018070D01*
X99508949Y21018070D01*
X99629902Y21078546D01*
X99690378Y21139022D01*
X99750854Y21259974D01*
X99750854Y21562355D01*
X99690378Y21683308D01*
X99629902Y21743784D01*
X99508949Y21804260D01*
X99267045Y21804260D01*
X99146092Y21743784D01*
X99085616Y21683308D01*
X99025140Y21562355D01*
X100960378Y21018070D02*
X100234664Y21018070D01*
X100597521Y21018070D02*
X100597521Y22288070D01*
X100476569Y22106641D01*
X100355616Y21985689D01*
X100234664Y21925213D01*
D11*
X52818354Y13509022D02*
X54723354Y13962593D01*
X53362640Y14325451D01*
X54723354Y14688308D01*
X52818354Y15141879D01*
X54723354Y16865451D02*
X54723354Y15776879D01*
X54723354Y16321165D02*
X52818354Y16321165D01*
X53090497Y16139736D01*
X53271926Y15958308D01*
X53362640Y15776879D01*
X59283354Y13509022D02*
X61188354Y13962593D01*
X59827640Y14325451D01*
X61188354Y14688308D01*
X59283354Y15141879D01*
X59464783Y15776879D02*
X59374069Y15867593D01*
X59283354Y16049022D01*
X59283354Y16502593D01*
X59374069Y16684022D01*
X59464783Y16774736D01*
X59646211Y16865451D01*
X59827640Y16865451D01*
X60099783Y16774736D01*
X61188354Y15686165D01*
X61188354Y16865451D01*
X107543354Y24314022D02*
X109448354Y24767593D01*
X108087640Y25130451D01*
X109448354Y25493308D01*
X107543354Y25946879D01*
X107543354Y26491165D02*
X107543354Y27670451D01*
X108269069Y27035451D01*
X108269069Y27307593D01*
X108359783Y27489022D01*
X108450497Y27579736D01*
X108631926Y27670451D01*
X109085497Y27670451D01*
X109266926Y27579736D01*
X109357640Y27489022D01*
X109448354Y27307593D01*
X109448354Y26763308D01*
X109357640Y26581879D01*
X109266926Y26491165D01*
X30708354Y43046522D02*
X28803354Y43046522D01*
X28803354Y43772236D01*
X28894069Y43953665D01*
X28984783Y44044379D01*
X29166211Y44135093D01*
X29438354Y44135093D01*
X29619783Y44044379D01*
X29710497Y43953665D01*
X29801211Y43772236D01*
X29801211Y43046522D01*
X30708354Y45949379D02*
X30708354Y44860808D01*
X30708354Y45405093D02*
X28803354Y45405093D01*
X29075497Y45223665D01*
X29256926Y45042236D01*
X29347640Y44860808D01*
X47853354Y8756522D02*
X45948354Y8756522D01*
X45948354Y9482236D01*
X46039069Y9663665D01*
X46129783Y9754379D01*
X46311211Y9845093D01*
X46583354Y9845093D01*
X46764783Y9754379D01*
X46855497Y9663665D01*
X46946211Y9482236D01*
X46946211Y8756522D01*
X46129783Y10570808D02*
X46039069Y10661522D01*
X45948354Y10842951D01*
X45948354Y11296522D01*
X46039069Y11477951D01*
X46129783Y11568665D01*
X46311211Y11659379D01*
X46492640Y11659379D01*
X46764783Y11568665D01*
X47853354Y10480093D01*
X47853354Y11659379D01*
X103098354Y8756522D02*
X101193354Y8756522D01*
X101193354Y9482236D01*
X101284069Y9663665D01*
X101374783Y9754379D01*
X101556211Y9845093D01*
X101828354Y9845093D01*
X102009783Y9754379D01*
X102100497Y9663665D01*
X102191211Y9482236D01*
X102191211Y8756522D01*
X101193354Y10480093D02*
X101193354Y11659379D01*
X101919069Y11024379D01*
X101919069Y11296522D01*
X102009783Y11477951D01*
X102100497Y11568665D01*
X102281926Y11659379D01*
X102735497Y11659379D01*
X102916926Y11568665D01*
X103007640Y11477951D01*
X103098354Y11296522D01*
X103098354Y10752236D01*
X103007640Y10570808D01*
X102916926Y10480093D01*
%LPC*%
D16*
X14606569Y16942593D03*
X15876569Y16942593D03*
X17146569Y16942593D03*
X18416569Y16942593D03*
X19686569Y16942593D03*
X20956569Y16942593D03*
X22226569Y16942593D03*
X23496569Y16942593D03*
X24766569Y16942593D03*
X26036569Y16942593D03*
X27306569Y16942593D03*
X28576569Y16942593D03*
X28576569Y26037593D03*
X27306569Y26037593D03*
X26036569Y26037593D03*
X24766569Y26037593D03*
X23496569Y26037593D03*
X22226569Y26037593D03*
X20956569Y26037593D03*
X19686569Y26037593D03*
X18416569Y26037593D03*
X17146569Y26037593D03*
X15876569Y26037593D03*
X14606569Y26037593D03*
X32386569Y16942593D03*
X33656569Y16942593D03*
X34926569Y16942593D03*
X36196569Y16942593D03*
X37466569Y16942593D03*
X38736569Y16942593D03*
X40006569Y16942593D03*
X41276569Y16942593D03*
X42546569Y16942593D03*
X43816569Y16942593D03*
X45086569Y16942593D03*
X46356569Y16942593D03*
X46356569Y26037593D03*
X45086569Y26037593D03*
X43816569Y26037593D03*
X42546569Y26037593D03*
X41276569Y26037593D03*
X40006569Y26037593D03*
X38736569Y26037593D03*
X37466569Y26037593D03*
X36196569Y26037593D03*
X34926569Y26037593D03*
X33656569Y26037593D03*
X32386569Y26037593D03*
X69216569Y16942593D03*
X70486569Y16942593D03*
X71756569Y16942593D03*
X73026569Y16942593D03*
X74296569Y16942593D03*
X75566569Y16942593D03*
X76836569Y16942593D03*
X78106569Y16942593D03*
X79376569Y16942593D03*
X80646569Y16942593D03*
X81916569Y16942593D03*
X83186569Y16942593D03*
X83186569Y26037593D03*
X81916569Y26037593D03*
X80646569Y26037593D03*
X79376569Y26037593D03*
X78106569Y26037593D03*
X76836569Y26037593D03*
X75566569Y26037593D03*
X74296569Y26037593D03*
X73026569Y26037593D03*
X71756569Y26037593D03*
X70486569Y26037593D03*
X69216569Y26037593D03*
X86996569Y16942593D03*
X88266569Y16942593D03*
X89536569Y16942593D03*
X90806569Y16942593D03*
X92076569Y16942593D03*
X93346569Y16942593D03*
X94616569Y16942593D03*
X95886569Y16942593D03*
X97156569Y16942593D03*
X98426569Y16942593D03*
X99696569Y16942593D03*
X100966569Y16942593D03*
X100966569Y26037593D03*
X99696569Y26037593D03*
X98426569Y26037593D03*
X97156569Y26037593D03*
X95886569Y26037593D03*
X94616569Y26037593D03*
X93346569Y26037593D03*
X92076569Y26037593D03*
X90806569Y26037593D03*
X89536569Y26037593D03*
X88266569Y26037593D03*
X86996569Y26037593D03*
D17*
X50801569Y17782593D03*
D18*
X50801569Y15242593D03*
X50801569Y12702593D03*
D17*
X57151569Y17782593D03*
D18*
X57151569Y15242593D03*
X57151569Y12702593D03*
D17*
X105411569Y26672593D03*
D18*
X105411569Y24132593D03*
X105411569Y21592593D03*
D19*
X3811569Y12702593D03*
X106681569Y12702593D03*
D20*
X57151569Y23267593D03*
X57151569Y26267593D03*
X50801569Y23267593D03*
X50801569Y26267593D03*
D21*
X33021569Y45722593D03*
D18*
X33021569Y43182593D03*
X35561569Y45722593D03*
X35561569Y43182593D03*
X38101569Y45722593D03*
X38101569Y43182593D03*
X40641569Y45722593D03*
X40641569Y43182593D03*
X43181569Y45722593D03*
X43181569Y43182593D03*
X45721569Y45722593D03*
X45721569Y43182593D03*
X48261569Y45722593D03*
X48261569Y43182593D03*
X50801569Y45722593D03*
X50801569Y43182593D03*
X53341569Y45722593D03*
X53341569Y43182593D03*
X55881569Y45722593D03*
X55881569Y43182593D03*
X58421569Y45722593D03*
X58421569Y43182593D03*
X60961569Y45722593D03*
X60961569Y43182593D03*
X63501569Y45722593D03*
X63501569Y43182593D03*
X66041569Y45722593D03*
X66041569Y43182593D03*
X68581569Y45722593D03*
X68581569Y43182593D03*
X71121569Y45722593D03*
X71121569Y43182593D03*
X73661569Y45722593D03*
X73661569Y43182593D03*
X76201569Y45722593D03*
X76201569Y43182593D03*
X78741569Y45722593D03*
X78741569Y43182593D03*
X81281569Y45722593D03*
X81281569Y43182593D03*
D22*
X62231569Y23912593D03*
X62231569Y21812593D03*
X64771569Y23912593D03*
X64771569Y21812593D03*
D23*
X3786169Y5082593D03*
X50826969Y5082593D03*
D21*
X43816569Y6504993D03*
D18*
X41022569Y6504993D03*
X38355569Y6504993D03*
X35561569Y6504993D03*
X32767569Y6504993D03*
X29973569Y6504993D03*
X27306569Y6504993D03*
X24512569Y6504993D03*
X21718569Y6504993D03*
X18924569Y6504993D03*
X16257569Y6504993D03*
X13463569Y6504993D03*
X10669569Y6504993D03*
X42241769Y3660193D03*
X39701769Y3660193D03*
X36907769Y3660193D03*
X34164569Y3660193D03*
X31421369Y3660193D03*
X28627369Y3660193D03*
X25884169Y3660193D03*
X23140969Y3660193D03*
X20296169Y3660193D03*
X17603769Y3660193D03*
X14860569Y3660193D03*
X12066569Y3660193D03*
D23*
X59666169Y5082593D03*
X106706969Y5082593D03*
D21*
X99696569Y6504993D03*
D18*
X96902569Y6504993D03*
X94235569Y6504993D03*
X91441569Y6504993D03*
X88647569Y6504993D03*
X85853569Y6504993D03*
X83186569Y6504993D03*
X80392569Y6504993D03*
X77598569Y6504993D03*
X74804569Y6504993D03*
X72137569Y6504993D03*
X69343569Y6504993D03*
X66549569Y6504993D03*
X98121769Y3660193D03*
X95581769Y3660193D03*
X92787769Y3660193D03*
X90044569Y3660193D03*
X87301369Y3660193D03*
X84507369Y3660193D03*
X81764169Y3660193D03*
X79020969Y3660193D03*
X76176169Y3660193D03*
X73483769Y3660193D03*
X70740569Y3660193D03*
X67946569Y3660193D03*
D24*
X75461569Y11852593D03*
X75461569Y10212593D03*
X77961569Y11852593D03*
X77961569Y10212593D03*
X82961569Y11852593D03*
X82961569Y10212593D03*
X85461569Y11852593D03*
X85461569Y10212593D03*
X87961569Y11852593D03*
X87961569Y10212593D03*
X89461569Y11852593D03*
X89461569Y10212593D03*
X90961569Y11852593D03*
X90961569Y10212593D03*
X92461569Y11852593D03*
X92461569Y10212593D03*
X93961569Y11852593D03*
X93961569Y10212593D03*
X95461569Y11852593D03*
X95461569Y10212593D03*
X96961569Y11852593D03*
X96961569Y10212593D03*
X98461569Y11852593D03*
X98461569Y10212593D03*
X99961569Y11852593D03*
X99961569Y10212593D03*
X64771569Y18232593D03*
X64771569Y19872593D03*
X13961569Y11852593D03*
X13961569Y10212593D03*
X10961569Y11852593D03*
X10961569Y10212593D03*
X72461569Y11852593D03*
X72461569Y10212593D03*
X16961569Y11852593D03*
X16961569Y10212593D03*
X19961569Y11852593D03*
X19961569Y10212593D03*
X22461569Y11852593D03*
X22461569Y10212593D03*
X24961569Y11852593D03*
X24961569Y10212593D03*
X27461569Y11852593D03*
X27461569Y10212593D03*
X80461569Y11852593D03*
X80461569Y10212593D03*
X32461569Y11852593D03*
X32461569Y10212593D03*
X33961569Y11852593D03*
X33961569Y10212593D03*
X35461569Y11852593D03*
X35461569Y10212593D03*
X69461569Y11852593D03*
X69461569Y10212593D03*
X66461569Y11852593D03*
X66461569Y10212593D03*
X62231569Y18232593D03*
X62231569Y19872593D03*
X44461569Y11852593D03*
X44461569Y10212593D03*
X42961569Y11852593D03*
X42961569Y10212593D03*
X41461569Y11852593D03*
X41461569Y10212593D03*
X39961569Y11852593D03*
X39961569Y10212593D03*
X38461569Y11852593D03*
X38461569Y10212593D03*
X29961569Y11852593D03*
X29961569Y10212593D03*
X36961569Y11852593D03*
X36961569Y10212593D03*
X67961569Y10212593D03*
X67961569Y11852593D03*
X73961569Y10212593D03*
X73961569Y11852593D03*
X12461569Y10212593D03*
X12461569Y11852593D03*
X18461569Y10212593D03*
X18461569Y11852593D03*
X9461569Y11852593D03*
X9461569Y10212593D03*
X70961569Y11852593D03*
X70961569Y10212593D03*
D25*
X14421569Y28577593D03*
X16061569Y28577593D03*
X86811569Y28577593D03*
X88451569Y28577593D03*
M02*
