M48
;DRILL file {KiCad no-vcs-found-7571~57~ubuntu17.04.1} date Wed Feb  8 08:53:30 2017
;FORMAT={-:-/ absolute / inch / decimal}
FMAT,2
INCH,TZ
T1C0.015
T2C0.040
T3C0.125
%
G90
G05
M72
T1
X3.0906Y-3.937
X3.225Y-3.5
X3.325Y-3.7
X3.375Y-3.875
X3.425Y-3.7
X3.475Y-3.875
X3.525Y-3.7
X3.575Y-3.875
X3.625Y-3.7
X3.675Y-3.875
X3.725Y-3.7
X3.925Y-3.5
X3.925Y-3.7
X3.975Y-3.875
X4.025Y-3.7
X4.075Y-3.875
X4.125Y-3.7
X4.175Y-3.875
X4.225Y-3.7
X4.275Y-3.875
X4.325Y-3.7
X4.375Y-3.5
X4.425Y-3.7
X4.425Y-3.95
X4.55Y-3.475
X4.6Y-3.475
X4.65Y-3.475
X4.8Y-3.475
X4.85Y-3.475
X4.9Y-3.475
X5.2165Y-3.937
X5.2756Y-3.937
X5.3Y-2.95
X5.3Y-3.6
X5.375Y-3.5
X5.3937Y-4.0945
X5.475Y-3.7
X5.525Y-3.875
X5.575Y-3.7
X5.625Y-3.875
X5.675Y-3.7
X5.725Y-3.875
X5.775Y-3.7
X5.825Y-3.875
X5.875Y-3.7
X6.075Y-3.5
X6.075Y-3.7
X6.125Y-3.875
X6.175Y-3.7
X6.225Y-3.875
X6.275Y-3.7
X6.325Y-3.875
X6.375Y-3.7
X6.425Y-3.875
X6.475Y-3.7
X6.575Y-3.7
X6.5945Y-3.9567
T2
X3.02Y-4.194
X3.075Y-4.306
X3.13Y-4.194
X3.185Y-4.306
X3.24Y-4.194
X3.293Y-4.306
X3.345Y-4.194
X3.399Y-4.306
X3.455Y-4.194
X3.511Y-4.306
X3.565Y-4.194
X3.619Y-4.306
X3.675Y-4.194
X3.727Y-4.306
X3.78Y-4.194
X3.837Y-4.306
X3.89Y-4.194
X3.9Y-2.65
X3.9Y-2.75
X3.945Y-4.306
X4.Y-2.65
X4.Y-2.75
X4.Y-4.194
X4.053Y-4.306
X4.1Y-2.65
X4.1Y-2.75
X4.11Y-4.194
X4.163Y-4.306
X4.2Y-2.65
X4.2Y-2.75
X4.215Y-4.194
X4.263Y-4.306
X4.3Y-2.65
X4.3Y-2.75
X4.325Y-4.194
X4.4Y-2.65
X4.4Y-2.75
X4.5Y-2.65
X4.5Y-2.75
X4.6Y-2.65
X4.6Y-2.75
X4.6Y-3.75
X4.6Y-3.85
X4.6Y-3.95
X4.7Y-2.65
X4.7Y-2.75
X4.8Y-2.65
X4.8Y-2.75
X4.85Y-3.75
X4.85Y-3.85
X4.85Y-3.95
X4.9Y-2.65
X4.9Y-2.75
X5.Y-2.65
X5.Y-2.75
X5.1Y-2.65
X5.1Y-2.75
X5.2Y-2.65
X5.2Y-2.75
X5.22Y-4.194
X5.275Y-4.306
X5.3Y-2.65
X5.3Y-2.75
X5.33Y-4.194
X5.385Y-4.306
X5.4Y-2.65
X5.4Y-2.75
X5.44Y-4.194
X5.493Y-4.306
X5.5Y-2.65
X5.5Y-2.75
X5.545Y-4.194
X5.599Y-4.306
X5.6Y-2.65
X5.6Y-2.75
X5.655Y-4.194
X5.7Y-2.65
X5.7Y-2.75
X5.711Y-4.306
X5.765Y-4.194
X5.8Y-2.65
X5.8Y-2.75
X5.819Y-4.306
X5.875Y-4.194
X5.927Y-4.306
X5.98Y-4.194
X6.037Y-4.306
X6.09Y-4.194
X6.145Y-4.306
X6.2Y-4.194
X6.253Y-4.306
X6.31Y-4.194
X6.363Y-4.306
X6.415Y-4.194
X6.463Y-4.306
X6.525Y-4.194
X6.75Y-3.4
X6.75Y-3.5
X6.75Y-3.6
T3
X2.749Y-4.25
X2.75Y-3.95
X4.601Y-4.25
X4.949Y-4.25
X6.8Y-3.95
X6.801Y-4.25
T0
M30
